<svg width="600" height="498" viewBox="0 0 600 498" version="1.1" xmlns="http://www.w3.org/2000/svg" xmlns:xlink="http://www.w3.org/1999/xlink" xmlns:figma="http://www.figma.com/figma/ns">
<title>Bea</title>
<desc>Created using Figma</desc>
<g id="Canvas" transform="matrix(2 0 0 2 -712 3140)" figma:type="canvas">
<g id="Bea" style="mix-blend-mode:normal;" figma:type="frame">
<g id="Vector" style="mix-blend-mode:normal;" figma:type="vector">
<use xlink:href="#path0_stroke" transform="translate(361.096 -1564.44)" style="mix-blend-mode:normal;"/>
</g>
<g id="Vector 2" style="mix-blend-mode:normal;" figma:type="vector">
<use xlink:href="#path1_stroke" transform="translate(477.5 -1449)" style="mix-blend-mode:normal;"/>
</g>
</g>
</g>
<defs>
<path id="path0_stroke" d="M 44.2435 187.252C 45.2443 189.826 48.142 191.101 50.7157 190.1C 53.2894 189.099 54.5644 186.201 53.5636 183.628L 44.2435 187.252ZM 21.9036 183.94L 17.2073 185.656L 21.9036 183.94ZM 0.403622 150.94L -4.39037 152.36L -4.24363 152.855L -3.99873 153.31L 0.403622 150.94ZM 25.4036 114.94L 30.3455 115.7L 25.4036 114.94ZM 23.9035 83.4397L 19.1786 85.0753L 19.1786 85.0753L 23.9035 83.4397ZM 39.4036 43.4397L 41.9889 47.7195L 42.3493 47.5018L 42.6683 47.2268L 39.4036 43.4397ZM 107.404 12.4397L 110.605 16.2808L 107.404 12.4397ZM 143.404 15.9397L 138.625 17.4102L 143.404 15.9397ZM 143.243 42.2132C 144.775 44.5109 147.88 45.1317 150.177 43.6C 152.475 42.0682 153.096 38.9639 151.564 36.6662L 143.243 42.2132ZM 165.594 -0.994216C 162.869 -0.546837 161.022 2.02484 161.47 4.74978C 161.917 7.47472 164.489 9.32105 167.214 8.87368L 165.594 -0.994216ZM 248.404 3.93973L 249.366 -0.966839L 248.404 3.93973ZM 261.904 30.9397L 266.868 31.5355L 261.904 30.9397ZM 262.691 139.089C 260.012 139.759 258.383 142.473 259.053 145.152C 259.723 147.831 262.437 149.46 265.116 148.79L 262.691 139.089ZM 145.282 227.246C 147.936 226.485 149.471 223.716 148.71 221.061C 147.949 218.407 145.18 216.872 142.525 217.633L 145.282 227.246ZM 109.904 212.94L 114.58 211.17L 114.528 211.032L 114.468 210.898L 109.904 212.94ZM 67.4037 160.94L 62.5725 162.228L 62.5725 162.228L 67.4037 160.94ZM 72.4037 144.44L 76.6701 147.047L 72.4037 144.44ZM 80.9037 114.94L 75.9618 115.7L 75.9641 115.715L 75.9665 115.73L 80.9037 114.94ZM 138.904 57.9397L 137.939 62.8457L 137.939 62.8457L 138.904 57.9397ZM 170.404 54.4397L 170.708 49.449L 170.404 54.4397ZM 188.404 56.9397L 187.337 61.8245L 187.425 61.8438L 187.514 61.8599L 188.404 56.9397ZM 202.404 65.9397L 197.44 65.3345L 202.404 65.9397ZM 221.404 92.9397L 218.28 96.8441L 221.404 92.9397ZM 233.404 110.94L 237.581 113.687L 233.404 110.94ZM 246.404 174.44L 251.225 173.114L 246.404 174.44ZM 228.904 198.94L 226.296 194.673L 228.904 198.94ZM 215.904 224.94L 220.841 225.73L 215.904 224.94ZM 202.404 237.44L 202.885 242.416L 202.404 237.44ZM 161.492 232.451C 158.737 232.264 156.352 234.346 156.165 237.102C 155.978 239.857 158.06 242.241 160.815 242.428L 161.492 232.451ZM 163.798 203.02C 161.081 202.526 158.478 204.328 157.984 207.045C 157.49 209.762 159.292 212.365 162.009 212.859L 163.798 203.02ZM 179.939 207.475C 181.892 205.523 181.892 202.357 179.939 200.404C 177.987 198.452 174.821 198.452 172.868 200.404L 179.939 207.475ZM 48.9035 185.44C 53.5636 183.628 53.5626 183.625 53.5616 183.622C 53.5613 183.622 53.5603 183.619 53.5596 183.617C 53.5589 183.615 53.5568 183.61 53.5553 183.606C 53.5538 183.603 53.5494 183.591 53.5462 183.583C 53.5426 183.574 53.5329 183.55 53.5255 183.532C 53.5162 183.509 53.4929 183.454 53.4734 183.408C 53.4462 183.346 53.3832 183.206 53.3245 183.082C 53.2333 182.893 53.0326 182.51 52.8243 182.158C 52.4714 181.579 51.6873 180.502 50.7966 179.606C 48.831 177.694 45.7444 175.94 41.4035 175.94L 41.4035 185.94C 42.8128 185.94 43.4761 186.436 43.823 186.773C 44.0886 187.003 44.1014 187.051 44.2563 187.315C 44.3018 187.385 44.3367 187.468 44.3097 187.411C 44.3093 187.411 44.2928 187.373 44.2916 187.37C 44.2968 187.382 44.2689 187.316 44.2712 187.321C 44.2752 187.331 44.2564 187.285 44.2583 187.289C 44.2606 187.295 44.25 187.268 44.2511 187.271C 44.2523 187.274 44.2467 187.26 44.2473 187.262C 44.2467 187.26 44.2457 187.258 44.2454 187.257C 44.2445 187.254 44.2435 187.252 48.9035 185.44ZM 41.4035 175.94C 37.8081 175.94 32.3454 177.266 28.5851 178.129C 26.5531 178.595 24.8588 178.978 23.6305 179.159C 23.0741 179.245 22.8255 179.232 22.9042 179.247C 22.9266 179.248 23.3604 179.261 23.9488 179.488C 24.5427 179.717 25.9484 180.441 26.6 182.224L 17.2073 185.656C 17.9274 187.626 19.5004 188.49 20.3508 188.818C 20.9637 189.027 21.9213 189.203 22.4218 189.236C 23.1925 189.261 24.2675 189.174 25.1157 189.048C 26.6966 188.808 28.7649 188.347 30.8205 187.876C 35.2357 186.863 39.2489 185.94 41.4035 185.94L 41.4035 175.94ZM 26.6 182.224C 21.7 168.813 17.7583 163.111 13.7846 159.062C 9.91987 155.125 7.85884 154.239 4.80598 148.569L -3.99873 153.31C -0.0515864 160.641 3.8874 163.255 6.64772 166.067C 9.29902 168.768 12.6073 173.066 17.2073 185.656L 26.6 182.224ZM 5.19762 149.519C 4.76129 148.047 4.99994 146.467 6.49804 144.226C 8.15098 141.693 10.7564 139.305 13.9461 136.515C 17.1386 133.721 20.7593 130.729 23.7367 127.573C 26.692 124.424 29.6112 120.473 30.3455 115.7L 20.4617 114.179C 20.196 115.907 18.9901 118.018 16.4455 120.729C 13.9229 123.431 10.6686 126.096 7.36108 128.989C 4.05078 131.887 0.531265 135.217 -1.81579 138.669C -4.31768 142.412 -5.95403 147.083 -4.39037 152.36L 5.19762 149.519ZM 30.3455 115.7C 32.8079 99.6945 31.4985 90.0956 28.6285 81.8042L 19.1786 85.0753C 21.4267 91.57 22.722 99.4884 20.4617 114.179L 30.3455 115.7ZM 28.6285 81.8042C 24.9171 71.0824 28.1173 62.7758 32.4075 56.8794C 34.61 53.8174 36.929 51.6364 38.9369 49.9778C 39.8937 49.183 40.6412 48.6356 41.2358 48.2219C 41.5109 48.0299 41.6957 47.9077 41.8482 47.8092C 41.9138 47.7668 41.9481 47.7451 41.9829 47.7234C 41.995 47.7158 41.9963 47.7151 42.0026 47.7112C 42.0032 47.7108 42.0003 47.7126 42 47.7128C 42.0011 47.7121 41.995 47.7158 41.9955 47.7155C 41.9946 47.716 41.9929 47.7171 41.9925 47.7173C 41.9907 47.7184 41.9889 47.7195 39.4036 43.4397C 36.8184 39.1599 36.8164 39.1612 36.8142 39.1625C 36.8134 39.163 36.8112 39.1643 36.8095 39.1653C 36.8075 39.1665 36.8025 39.1696 36.7984 39.1721C 36.7929 39.1754 36.7806 39.1829 36.7695 39.1897C 36.7526 39.2001 36.7192 39.2208 36.6857 39.2417C 36.6291 39.277 36.5283 39.3408 36.4182 39.4119C 36.2194 39.5405 35.8914 39.7581 35.5199 40.0165C 34.8215 40.5035 33.7413 41.2996 32.5597 42.2751C 30.2909 44.1574 27.0903 47.2253 24.3214 50.996C 18.6688 58.7648 14.1189 70.4582 19.1786 85.0753L 28.6285 81.8042ZM 39.4036 43.4397C 42.6683 47.2268 42.6672 47.2277 42.6662 47.2286C 42.6659 47.2289 42.6649 47.2297 42.6644 47.2302C 42.6647 47.2299 42.6611 47.233 42.6618 47.2324C 42.6615 47.2326 42.66 47.234 42.6604 47.2336C 42.6643 47.2303 42.6654 47.2294 42.673 47.2229C 42.6947 47.2046 42.7171 47.1858 42.7595 47.1507C 42.8572 47.0698 42.9811 46.9686 43.1709 46.8184C 43.5774 46.4963 44.1279 46.0732 44.9011 45.5202C 46.5061 44.3695 48.7025 42.9101 51.6104 41.3292C 57.5607 38.0755 65.3665 34.7904 74.8892 33.9161L 73.9182 23.9634C 62.9408 25.0891 53.2466 29.0539 46.8219 32.5502C 43.5423 34.3444 40.8324 36.1349 39.078 37.3905C 38.1716 38.0406 37.4291 38.6097 36.9625 38.979C 36.7158 39.1746 36.5082 39.3438 36.3835 39.447C 36.3147 39.504 36.2531 39.5556 36.2187 39.5847C 36.1983 39.602 36.1783 39.619 36.1681 39.6277C 36.1614 39.6334 36.1541 39.6396 36.1508 39.6425C 36.1484 39.6445 36.1454 39.6471 36.1442 39.6481C 36.1432 39.649 36.1419 39.6501 36.1414 39.6506C 36.1401 39.6516 36.1389 39.6527 39.4036 43.4397ZM 74.8892 33.9161C 85.8006 32.8516 92.8939 30.1427 98.383 26.576C 103.657 23.0893 107 19.2629 110.605 16.2808L 104.203 8.59862C 99.988 12.133 97.0803 15.5566 92.9345 18.1907C 89.0036 20.7449 83.5067 23.0279 73.9182 23.9634L 74.8892 33.9161ZM 110.605 16.2808C 124.457 4.73702 130.494 5.95398 132.753 7.25551C 135.953 9.09818 137.466 13.6454 138.625 17.4102L 148.183 14.4693C 147.341 11.7341 144.982 2.75874 137.745 -1.40986C 129.568 -6.1196 118.604 -3.40264 104.203 8.59862L 110.605 16.2808ZM 138.625 17.4102C 139.731 20.8154 139.676 24.5582 139.862 28.7612C 140.04 32.7489 140.375 37.9112 143.243 42.2132L 151.564 36.6662C 150.432 34.9682 150.039 32.5128 149.852 28.3166C 149.674 24.3358 149.62 19.3285 148.183 14.4693L 138.625 17.4102ZM 167.214 8.87368C 200.256 3.42731 222.366 3.91077 247.442 8.8463L 249.366 -0.966839C 223.441 -6.03131 199.551 -6.54785 165.594 -0.994216L 167.214 8.87368ZM 247.442 8.8463C 252.568 9.85143 255.414 11.105 256.973 12.2426C 258.325 13.2293 258.776 14.1628 258.97 15.2409C 259.312 16.8291 259.056 18.5192 258.574 21.1513C 258.091 23.8069 257.356 26.9395 256.939 30.344L 266.868 31.5355C 267.201 28.6899 267.879 25.8568 268.411 22.946C 268.944 20.0115 269.307 16.5343 268.812 13.4693C 268.168 9.89425 266.326 6.68858 262.868 4.16519C 259.618 1.79273 255.139 0.165198 249.366 -0.966839L 247.442 8.8463ZM 256.939 30.344C 256.497 34.0752 255.053 41.0911 256.322 48.2927C 257.822 56.1538 262.715 63.7241 274.109 68.1065L 277.699 58.773C 269.593 55.6554 267.009 50.9472 266.145 46.419C 265.052 41.2314 266.357 35.7472 266.868 31.5355L 256.939 30.344ZM 274.109 68.1065C 283.108 71.5678 284.294 74.8165 284.531 76.2884C 284.79 77.51 284.58 78.4658 284.194 80.043C 283.824 81.5916 283.2 83.4723 282.942 85.3196L 292.865 86.5599C 292.942 85.7302 293.423 84.3974 293.913 82.3972C 294.386 80.4257 294.79 77.4973 294.404 74.7007C 293.348 68.136 288.199 62.8117 277.699 58.773L 274.109 68.1065ZM 282.942 85.3196C 282.819 86.374 282.258 88.6379 281.437 91.9091C 280.615 95.1862 279.577 99.2525 278.594 103.56C 276.677 111.961 274.763 122.12 275.424 129.392L 285.383 128.487C 284.886 123.024 286.387 114.359 288.343 105.783C 289.297 101.602 290.309 97.6406 291.136 94.3432C 291.965 91.04 292.654 88.1823 292.865 86.5599L 282.942 85.3196ZM 265.116 148.79C 266.968 148.325 269.074 147.933 271.237 147.393C 273.407 146.845 275.991 145.985 278.108 144.784C 280.231 143.505 282.631 141.141 283.965 138.501C 285.313 135.63 285.728 132.278 285.383 128.487L 275.424 129.392C 275.658 131.97 275.3 133.426 274.913 134.249C 274.512 135.303 274.214 135.518 273.068 136.147C 271.915 136.854 270.656 137.231 268.803 137.694C 266.941 138.163 264.839 138.554 262.691 139.089L 265.116 148.79ZM 142.525 217.633C 134.228 220.018 128.595 221.14 124.411 221.416C 120.376 221.693 118.779 221.065 118.176 220.684C 117.705 220.386 117.248 219.88 116.694 218.221C 116.091 216.45 115.616 213.963 114.58 211.17L 105.227 214.709C 105.988 216.666 106.412 218.961 107.208 221.385C 108.054 223.922 109.498 227.025 112.827 229.133C 116.025 231.158 120.129 231.733 125.095 231.393C 129.912 231.052 136.58 229.737 145.282 227.246L 142.525 217.633ZM 114.468 210.898C 106.019 192.013 98.9396 181.445 87.4589 177.688L 84.3485 187.192C 91.201 189.434 96.788 195.866 105.34 214.982L 114.468 210.898ZM 87.4589 177.688C 80.2535 175.33 74.7585 169.115 72.2348 159.651L 62.5725 162.228C 65.7569 174.17 73.2205 183.55 84.3485 187.192L 87.4589 177.688ZM 72.2348 159.651C 71.5177 156.962 71.8214 155.424 72.4309 154.006C 73.2035 152.105 74.7613 150.155 76.6701 147.047L 68.1372 141.832C 66.5351 144.469 64.5929 147.02 63.2432 150.058C 61.7304 153.578 61.2896 157.417 62.5725 162.228L 72.2348 159.651ZM 76.6701 147.047C 82.1215 138.126 88.1631 128.664 85.8409 114.15L 75.9665 115.73C 77.6442 126.216 73.6858 132.753 68.1372 141.832L 76.6701 147.047ZM 85.8455 114.179C 84.5073 105.481 87.5995 97.0416 92.8068 89.8973C 98.0408 82.7162 105.037 77.3836 110.417 75.0163L 106.39 65.8632C 99.2702 68.9958 90.9165 75.5132 84.7255 84.0072C 78.5078 92.5378 74.1 103.598 75.9618 115.7L 85.8455 114.179ZM 110.417 75.0163C 117.26 71.9564 122.11 68.0576 126.358 65.5118C 130.523 62.9803 133.259 61.7231 137.939 62.8457L 139.869 53.0338C 132.377 51.7621 126.114 54.0049 121.196 56.947C 116.362 59.8747 112.047 63.423 106.39 65.8632L 110.417 75.0163ZM 137.939 62.8457C 142.152 63.6578 145.701 63.7738 148.361 63.4716C 151.186 63.1053 153.551 62.3069 155.466 61.6011C 158.921 60.3271 162.236 58.9506 170.099 59.4304L 170.708 49.449C 160.875 48.8489 156.065 50.7224 152.007 52.2184C 150.165 52.8975 148.926 53.3641 147.18 53.5416C 145.269 53.7831 143.281 53.7217 139.869 53.0338L 137.939 62.8457ZM 170.099 59.4304C 176.991 59.8473 180.592 60.3475 187.337 61.8245L 189.471 52.0549C 182.348 50.5029 177.984 49.8968 170.708 49.449L 170.099 59.4304ZM 188.404 56.9397C 187.514 61.8599 187.513 61.8597 187.512 61.8596C 187.512 61.8595 187.511 61.8594 187.51 61.8593C 187.511 61.8593 187.508 61.8588 187.508 61.8589C 187.508 61.8588 187.507 61.8587 187.508 61.8588C 187.512 61.8596 187.514 61.86 187.523 61.8616C 187.545 61.8657 187.568 61.8702 187.61 61.8784C 187.706 61.897 187.824 61.9208 187.999 61.9579C 188.372 62.037 188.848 62.1437 189.467 62.3016C 190.755 62.6288 192.253 63.0598 193.814 63.6999C 195.391 64.3336 196.42 64.8347 197.21 65.5922C 197.83 66.1462 197.359 66.0056 197.44 65.3345L 207.367 66.545C 207.835 62.7096 205.806 59.862 203.873 58.1352C 202.111 56.612 199.592 55.2585 197.573 54.4333C 195.537 53.6145 193.389 52.982 191.933 52.6105C 191.178 52.419 190.507 52.2676 190.075 52.1758C 189.847 52.1275 189.649 52.0877 189.529 52.0642C 189.463 52.0513 189.403 52.04 189.369 52.0336C 189.35 52.0299 189.331 52.0264 189.321 52.0245C 189.314 52.0234 189.308 52.0221 189.304 52.0215C 189.302 52.0211 189.299 52.0206 189.298 52.0204C 189.297 52.0203 189.296 52.02 189.296 52.02C 189.295 52.0197 189.294 52.0196 188.404 56.9397ZM 197.44 65.3345C 196.764 70.8828 196.995 75.425 198.192 79.2238C 199.438 82.9226 201.814 86.0856 204.141 88.0691C 206.495 89.9989 209.248 91.4763 211.665 92.7618C 214.084 94.0479 216.234 95.181 218.28 96.8441L 224.527 89.0354C 221.748 86.8387 218.799 85.2295 216.36 83.9325C 213.92 82.6349 212.057 81.6885 210.554 80.3957C 209.025 79.1567 208.304 78.2983 207.73 76.2189C 207.106 74.2395 206.794 71.2467 207.367 66.545L 197.44 65.3345ZM 218.28 96.8441C 220.305 98.4594 222.433 99.9163 224.278 101.232C 226.118 102.544 227.54 103.59 228.627 104.71C 229.652 105.749 229.845 106.318 229.88 106.509C 229.885 106.536 230.017 106.99 229.226 108.193L 237.581 113.687C 239.415 110.899 240.296 107.858 239.715 104.699C 239.164 101.704 237.434 99.3972 235.741 97.6832C 234.11 96.0512 232.016 94.4684 230.084 93.0901C 228.155 91.7156 226.252 90.4201 224.527 89.0354L 218.28 96.8441ZM 229.226 108.193C 221.782 119.513 224.763 133.346 228.968 144.929C 231.127 150.862 233.803 156.727 236.167 162.023C 238.53 167.316 240.531 171.895 241.583 175.766L 251.225 173.114C 249.962 168.57 247.682 163.287 245.298 157.947C 242.916 152.611 240.382 147.074 238.368 141.517C 234.231 130.12 233.025 120.616 237.581 113.687L 229.226 108.193ZM 241.583 175.766C 242.407 178.765 242.29 180.851 241.845 182.365C 241.388 184.163 240.625 185.16 239.071 186.605C 237.524 188.103 235.702 189.272 233.433 190.598C 231.164 191.927 228.663 193.23 226.296 194.673L 231.511 203.206C 233.582 201.937 235.999 200.68 238.482 199.229C 240.965 197.775 243.73 195.944 245.96 193.854C 248.182 191.709 250.385 188.527 251.439 185.186C 252.505 181.56 252.444 177.546 251.225 173.114L 241.583 175.766ZM 226.296 194.673C 217.718 199.916 213.868 206.203 212.257 212.172C 211.524 214.965 211.264 217.743 211.173 219.81C 211.084 221.912 211.12 223.311 210.966 224.15L 220.841 225.73C 221.093 224.034 221.083 222.06 221.164 220.244C 221.243 218.393 221.371 216.706 221.911 214.778C 222.848 211.306 225.093 207.128 231.511 203.206L 226.296 194.673ZM 210.966 224.15C 210.012 230.118 208.707 231.196 208.327 231.448C 207.872 231.817 207.608 231.844 206.47 232.013C 205.28 232.208 203.817 232.281 201.922 232.463L 202.885 242.416C 204.566 242.253 206.328 242.153 208.028 241.891C 209.779 241.605 212.068 240.894 213.844 239.788C 217.926 237.087 219.796 232.262 220.841 225.73L 210.966 224.15ZM 201.922 232.463C 186.776 233.941 176.186 233.448 161.492 232.451L 160.815 242.428C 175.621 243.432 187.031 243.938 202.885 242.416L 201.922 232.463ZM 162.009 212.859C 169.077 214.144 175.246 212.168 179.939 207.475L 172.868 200.404C 170.561 202.711 167.73 203.735 163.798 203.02L 162.009 212.859Z"/>
<path id="path1_stroke" d="M 45.0955 -0.745317C 43.027 0.0303638 41.979 2.33601 42.7547 4.40449C 43.5304 6.47298 45.836 7.521 47.9045 6.74532L 45.0955 -0.745317ZM 70.9701 3.88057C 73.1133 3.34478 74.4164 1.17304 73.8806 -0.970143C 73.3448 -3.11332 71.173 -4.41636 69.0299 -3.88057L 70.9701 3.88057ZM 53.3677 10.5953C 51.2112 10.116 49.0745 11.4757 48.5953 13.6323C 48.116 15.7888 49.4757 17.9255 51.6323 18.4047L 53.3677 10.5953ZM 73.1763 13.8231C 75.2878 13.1734 76.4728 10.9351 75.8231 8.82366C 75.1734 6.71221 72.9351 5.52721 70.8237 6.17688L 73.1763 13.8231ZM -2.44579 12.8349C -4.19385 14.1856 -4.51591 16.6977 -3.16514 18.4458C -1.81437 20.1938 0.697731 20.5159 2.44579 19.1651L -2.44579 12.8349ZM 22.8677 13.9047C 25.0243 13.4255 26.384 11.2888 25.9047 9.13228C 25.4255 6.97575 23.2888 5.61602 21.1323 6.09525L 22.8677 13.9047ZM 3.61524 24.1586C 1.4937 23.5427 -0.725454 24.7632 -1.34138 26.8848C -1.95732 29.0063 -0.736779 31.2255 1.38476 31.8414L 3.61524 24.1586ZM 30.4498 24.228C 32.5087 23.4273 33.5287 21.1091 32.728 19.0502C 31.9273 16.9913 29.6091 15.9713 27.5502 16.772L 30.4498 24.228ZM 42.7592 30.367C 43.5141 28.2908 42.4431 25.9958 40.367 25.2408C 38.2908 24.4859 35.9958 25.5569 35.2408 27.633L 42.7592 30.367ZM 40.5 50L 43.033 46.9042L 40.5 50ZM 47.1 74.2C 48.8673 75.5255 51.3745 75.1673 52.7 73.4C 54.0255 71.6327 53.6673 69.1255 51.9 67.8L 47.1 74.2ZM 47.9045 6.74532C 51.3813 5.40171 55.1367 5.11643 59.1816 4.93337C 62.9518 4.762 67.4602 4.75806 70.9701 3.88057L 69.0299 -3.88057C 66.5398 -3.25806 63.2982 -3.262 58.8184 -3.05837C 54.6133 -2.86643 49.6187 -2.40171 45.0955 -0.745317L 47.9045 6.74532ZM 51.6323 18.4047C 56.9426 19.4996 61.3472 18.7216 64.6181 17.4854C 67.9009 16.2092 70.4044 14.6418 73.1763 13.8231L 70.8237 6.17688C 67.0956 7.35816 64.3491 9.04084 61.7569 10.0146C 59.1528 11.0284 57.0574 11.5004 53.3677 10.5953L 51.6323 18.4047ZM 2.44579 19.1651C 7.52722 15.2386 10.0311 14.6777 11.9995 14.5547C 14.4282 14.362 17.4904 15 22.8677 13.9047L 21.1323 6.09525C 17.5096 7.00001 15.0718 6.38796 11.5005 6.57029C 7.46892 6.82226 3.47278 8.26142 -2.44579 12.8349L 2.44579 19.1651ZM 1.38476 31.8414C 10.0075 34.3448 15.5135 33.3385 20.1456 30.7379C 22.1966 29.5721 23.9568 28.1926 25.577 27.0291C 27.2015 25.8601 28.5809 24.9314 30.4498 24.228L 27.5502 16.772C 24.9191 17.8186 22.6735 19.2649 20.9073 20.5334C 19.137 21.8074 17.7409 22.9279 16.2294 23.7621C 13.7365 25.1615 10.4925 26.1552 3.61524 24.1586L 1.38476 31.8414ZM 35.2408 27.633C 33.2171 33.1981 31.9572 37.9811 32.1939 42.1636C 32.4521 46.7261 34.4567 50.2237 37.967 53.0958L 43.033 46.9042C 41.0433 45.2763 40.2979 43.7739 40.1811 41.7114C 40.0428 39.2689 40.7829 35.8019 42.7592 30.367L 35.2408 27.633ZM 37.967 53.0958C 40.5442 55.2044 41.1414 56.5189 41.3681 57.4309C 41.7573 58.7185 41.5076 60.2542 41.5 63L 49.5 63C 49.4924 60.7458 49.7427 58.2361 49.1319 55.5009C 48.3586 52.3902 46.4558 49.7047 43.033 46.9042L 37.967 53.0958ZM 41.5 63C 41.5 64.6683 41.5768 66.6982 42.3041 68.6561C 43.206 70.8348 44.8696 72.5272 47.1 74.2L 51.9 67.8C 50.1304 66.4728 49.794 65.8335 49.6959 65.5964C 49.5555 65.2573 49.5 64.8515 49.5 63L 41.5 63Z"/>
</defs>
</svg>
