<?xml version="1.0" encoding="utf-8"?>
<!-- Generator: Adobe Illustrator 23.0.0, SVG Export Plug-In . SVG Version: 6.00 Build 0)  -->
<svg version="1.1" id="Layer_1" xmlns="http://www.w3.org/2000/svg" xmlns:xlink="http://www.w3.org/1999/xlink" x="0px" y="0px"
	 viewBox="0 0 674.19 175.56" style="enable-background:new 0 0 674.19 175.56;" xml:space="preserve">
<style type="text/css">
	.st0{fill:#FFFFFF;}
</style>
<g>
	<path d="M155.5,52.47c0,0.93-0.08,1.86,0.01,2.77c0.43,3.92,1.05,7.83,1.33,11.76c0.53,7.32,0.71,14.67,1.33,21.98
		c0.66,7.75,1.68,15.47,2.54,23.2c0.55,4.9,1.23,9.78,1.58,14.69c0.14,2.03-0.23,4.17-0.78,6.15c-0.57,2.06-2.29,2.26-3.68,0.57
		c-1.33-1.62-2.14-3.38-2.35-5.63c-0.7-7.52-1.71-15.01-2.6-22.52c-0.1-0.87-0.38-1.75-0.32-2.61c0.29-4.2-0.93-8.22-1.34-12.32
		c-0.71-6.96-0.91-13.98-1.33-20.97c-0.04-0.66-0.05-1.31-0.13-1.97c-0.78-6.75-1.61-13.49-2.32-20.25
		c-0.17-1.62-0.12-3.31,0.16-4.91c0.47-2.71,1.55-3.32,4.17-2.71c2.43,0.57,4.48,1.74,6.03,3.74c0.74,0.95,1.41,2.01,2.33,2.75
		c4.44,3.51,6.98,8.38,9.75,13.11c0.56,0.96,1.3,1.82,2.25,3.12c0.62-1.2,1.06-1.81,1.26-2.5c0.97-3.35,1.72-6.77,2.84-10.07
		c1.48-4.38,2.74-8.77,3.1-13.41c0.18-2.25,0.48-4.57,2.27-6.37c2.28-2.29,4.65-2.35,6.19,0.47c1.94,3.54,3.83,7.21,4.98,11.05
		c3.67,12.29,6.93,24.69,10.47,37.02c2.06,7.17,4.39,14.25,7.89,20.89c0.81,1.53,1.25,3.27,1.72,4.95c1.18,4.22,2.28,8.46,3.41,12.7
		c0.11,0.42,0.18,0.86,0.22,1.3c0.26,2.48-0.35,3.66-2.16,4.19c-2.06,0.61-4.03-0.17-4.98-2.12c-0.38-0.77-0.55-1.66-0.73-2.52
		c-0.68-3.22-1.2-6.48-2.02-9.66c-0.65-2.53-1.52-5.03-2.54-7.44c-2.03-4.84-4.55-9.51-6.26-14.46c-1.82-5.26-3.02-10.75-4.31-16.18
		c-1.5-6.33-3.79-12.35-6.42-18.27c-0.13-0.3-0.24-0.65-0.48-0.86c-0.46-0.41-1.02-1.03-1.51-1c-0.48,0.03-1.2,0.68-1.33,1.18
		c-0.88,3.39-1.72,6.79-2.41,10.22c-1,5.04-1.73,10.14-2.83,15.15c-0.64,2.89-3.46,3.5-5.52,1.3c-1.19-1.27-2.25-2.71-3.1-4.23
		c-1.75-3.15-3.13-6.53-5.02-9.59c-2.57-4.15-5.48-8.08-8.24-12.1C156.25,52.23,155.88,52.35,155.5,52.47z"/>
	<path d="M367.11,100.89c0.08,8.13-4.17,14.29-8.85,20.16c-2.59,3.25-6.07,4.19-10.31,3.19c-7.15-1.69-12.16-6.06-15.36-12.31
		c-3.58-7-6.53-14.33-9.74-21.53c-0.22-0.5-0.36-1.04-0.46-1.58c-1.03-6.05-2.02-12.1-3.05-18.14c-1.02-5.95-1.78-11.89-1.37-17.98
		c0.43-6.36,2.45-11.93,6.9-16.55c0.68-0.71,1.37-1.43,2-2.19c2.78-3.35,7.88-3.86,11.42-1.36c3.25,2.3,6.03,4.97,8.37,8.2
		c1.85,2.55,4.73,4.29,5.89,7.41c0.23,0.61,0.61,1.18,0.75,1.8c0.31,1.44-0.25,2.78-1.44,3.4c-0.82,0.43-2.19,0.45-3.04,0.05
		c-1.12-0.53-2.08-1.54-2.92-2.52c-2.99-3.49-5.89-7.06-8.83-10.6c-0.28-0.34-0.57-0.72-0.94-0.91c-1.02-0.52-2.25-1.52-3.1-1.28
		c-1.44,0.41-1.67,2.05-1.85,3.53c-0.86,6.99-0.46,13.98,0.09,20.96c0.55,6.98,1.39,13.91,3.38,20.7c1.37,4.7,2.3,9.59,2.89,14.46
		c0.61,5.07,3.37,8.96,6.06,12.91c1.71,2.51,4.44,3.89,7.37,4.65c2.8,0.72,4.5-0.46,5.44-3.28c2.14-6.45,1.79-12.88,0.14-19.35
		c-0.3-1.16-0.44-2.37-0.62-3.55c-0.37-2.47-0.57-2.8-2.97-3.17c-2.05-0.31-4.14-0.49-6.21-0.53c-1.69-0.03-2.95-0.71-4-1.92
		c-1.17-1.35-1.16-2.99,0.22-4.02c3.76-2.82,7.91-4.66,12.72-4.46c4.28,0.18,6.46,2.2,7.8,6.23c1.04,3.12,2.11,6.2,2.45,9.49
		C366.3,94.19,366.72,97.54,367.11,100.89z"/>
	<path d="M289.89,93.83c1.33-2.75,1.24-5.39,0.52-7.82c-1.27-4.33-1.01-8.69-0.82-13.06c0.37-8.32,1.26-16.64-0.7-24.9
		c-0.32-1.36-0.19-2.83-0.25-4.25c-0.15-3.61-0.33-7.23-0.42-10.84c-0.04-1.52-0.12-3.11,0.26-4.55c0.66-2.51,3.27-3.12,5.14-1.32
		c1.29,1.25,2.18,2.69,2.15,4.62c-0.06,3.62-0.07,7.24,0.02,10.86c0.07,2.85,0.12,5.71,0.53,8.52c0.96,6.67,0.74,13.31,0.23,19.99
		c-0.25,3.26,0.03,6.57,0.22,9.84c0.42,7.11,0.89,14.22,1.42,21.32c0.39,5.25,0.94,10.48,1.31,15.73c0.09,1.27,0.02,2.7-0.46,3.84
		c-0.96,2.29-2.96,2.59-4.76,0.86c-0.62-0.6-1.14-1.35-1.54-2.12c-3.94-7.61-7.48-15.38-9.55-23.74c-0.23-0.95-0.59-1.89-1.01-2.77
		c-3.97-8.44-7.5-17.05-10.37-25.94c-1.11-3.43-3.17-6.39-4.77-9.58c-0.25,0.05-0.5,0.11-0.74,0.16c-0.14,0.65-0.46,1.32-0.38,1.94
		c0.79,5.86,1.69,11.71,2.48,17.57c1.3,9.56,2.52,19.13,3.83,28.69c0.42,3.03,0.98,6.05,1.52,9.07c0.64,3.56,1.3,7.11,1.98,10.66
		c0.22,1.14,0.28,2.25-0.85,2.93c-1.15,0.69-2.12,0.09-2.96-0.69c-2.7-2.51-3.91-5.82-4.5-9.31c-0.86-5.07-1.41-10.19-2.15-15.29
		c-1.11-7.7-2.22-15.41-3.4-23.1c-0.5-3.25-1.31-6.45-1.74-9.71c-0.53-4.02-0.8-8.08-1.2-12.12c-0.56-5.67-1.17-11.34-1.7-17.02
		c-0.14-1.51-0.29-3.06,1.4-4.06c1.44-0.85,2.71-1.01,3.76,0.41c1.74,2.38,3.59,4.72,5.04,7.27c3.51,6.19,6.84,12.49,10.19,18.77
		c0.61,1.15,0.97,2.44,1.46,3.66c2.95,7.44,5.87,14.89,8.87,22.31C288.4,91.8,289.23,92.78,289.89,93.83z"/>
	<path d="M660.04,60.65c1.54-2.47,1.36-4.34,1.09-6.13c-0.78-5.2-1.52-10.42-2.61-15.56c-1.75-8.29-2.53-16.67-3.03-25.09
		c-0.08-1.41-0.54-2.79-0.71-4.2c-0.27-2.38-0.62-4.78-0.57-7.17c0.02-0.87,0.89-2.03,1.69-2.45c0.49-0.25,1.68,0.53,2.39,1.08
		c2.37,1.82,2.78,4.74,3.32,7.3c1.24,5.88,2.02,11.87,2.88,17.82c0.61,4.21,1.09,8.45,1.58,12.68c0.16,1.41,0.1,2.85,0.27,4.26
		c0.28,2.5,0.64,4.98,1,7.47c0.34,2.38,0.79,4.74,1.07,7.13c0.86,7.42,2.36,14.69,4.71,21.79c0.51,1.55,0.9,3.19,1.05,4.81
		c0.09,1.01-0.13,2.22-0.65,3.07c-2.09,3.44-4.93,3.4-6.95-0.1c-3.07-5.29-6.11-10.6-8.23-16.39c-0.64-1.73-1.69-3.31-2.56-4.96
		c-2.23-4.25-4.4-8.54-6.72-12.73c-2.01-3.63-4.22-7.16-6.32-10.75c-0.94-1.6-1.92-3.19-2.72-4.87c-0.69-1.44-1.55-2.59-3.38-3.27
		c-0.22,0.84-0.62,1.55-0.55,2.2c0.32,3.02,0.78,6.03,1.16,9.05c0.32,2.49,0.8,4.98,0.84,7.48c0.05,3.56,0.86,6.93,1.83,10.31
		c1.52,5.26,2.81,10.6,4.46,15.82c1.32,4.17,3.14,8.17,4.54,12.32c1.04,3.1,1.72,6.33,2.63,9.48c0.39,1.35,0.96,2.66,1.44,3.99
		c0.26,0.71,0.65,1.43,0.7,2.16c0.09,1.52,0.23,3.17-1.43,4.07c-1.29,0.69-4.06-0.13-4.93-1.69c-0.95-1.7-1.78-3.54-2.25-5.43
		c-1.6-6.49-3.35-12.9-5.94-19.11c-1.75-4.2-2.6-8.78-3.79-13.21c-1.22-4.54-2.66-9.05-3.49-13.66c-1.07-5.92-1.79-11.92-2.39-17.91
		c-0.66-6.54-1.04-13.11-1.46-19.68c-0.1-1.51-0.07-3.1,0.32-4.54c0.56-2.06,2.1-2.62,4.12-1.92c2.86,0.99,4.86,2.85,5.97,5.67
		c0.12,0.3,0.37,0.63,0.33,0.92c-0.61,4.48,2.4,7.48,4.43,10.87c2.8,4.68,5.62,9.34,8.4,14.02c1.68,2.82,3.3,5.68,4.93,8.53
		c0.59,1.04,1.14,2.1,1.71,3.15C658.71,58.22,659.21,59.13,660.04,60.65z"/>
	<path d="M0.12,93.96c-0.59-4.33,1.15-7.91,3.3-11.46c0.95-1.57,1.57-3.4,2.04-5.19c0.63-2.37,2.01-4.13,3.83-5.6
		c1.9-1.55,3.99-2.32,6.35-0.91c3.1,1.85,6.22,3.66,9.29,5.55c1.85,1.13,3.72,2.27,5.4,3.62c0.96,0.78,1.74,1.91,2.29,3.04
		c0.81,1.65,1.43,3.41,1.96,5.18c0.36,1.22,0.67,2.56,0.57,3.8c-0.19,2.36-2.37,3.27-4.27,1.83c-0.94-0.71-1.66-1.73-2.46-2.64
		c-2.17-2.47-4.29-4.99-6.53-7.4c-0.88-0.95-1.95-1.81-3.08-2.44c-3.32-1.85-5.87-0.85-7.11,2.72c-0.58,1.67-1.29,2.99-2.85,4.17
		c-1.69,1.28-2.51,3.66-2.18,5.92c0.75,5.07,1.69,10.12,2.6,15.17c0.27,1.51,0.6,3.02,1.04,4.48c1.37,4.46,2.73,8.92,5.13,13
		c0.83,1.4,1.25,3.04,1.91,4.54c0.84,1.9,1.75,3.77,2.59,5.67c0.87,2,1.64,4.04,2.54,6.02c1.75,3.86,3.25,7.88,5.44,11.48
		c2.59,4.27,6.37,7.65,10.79,9.91c4.73,2.41,9.98,3.15,15.32,2.79c2.87-0.19,4.82-2.23,5.79-4.37c1.93-4.23,3.98-8.6,3.04-13.56
		c-0.43-2.26-0.8-4.54-1.01-6.83c-0.14-1.51-0.19-3.09,0.12-4.55c0.42-2.01,2.59-2.73,4.06-1.29c1.14,1.11,2.06,2.57,2.7,4.04
		c1.99,4.55,2.32,9.34,1.25,14.16c-1.09,4.91-2.09,9.87-4.85,14.22c-1.73,2.72-4.09,4.59-7.29,5.12c-3.56,0.59-7.16,1.05-10.75,1.36
		c-1.37,0.12-2.84-0.16-4.17-0.56c-2.62-0.79-5.17-1.79-7.74-2.73c-4.06-1.49-6.81-4.72-9.9-7.49c-0.16-0.14-0.34-0.33-0.38-0.52
		c-1.05-5.13-5.15-8.74-6.8-13.58c-0.27-0.79-0.86-1.55-1.48-2.14c-2.38-2.25-3.66-5.13-4.76-8.11c-0.23-0.61-0.43-1.27-0.81-1.79
		c-2.55-3.46-3.47-7.5-4.39-11.58c-1.37-6.08-2.87-12.12-4.28-18.19c-0.69-2.98-1.42-5.96-1.91-8.98
		C0.13,97.92,0.21,95.93,0.12,93.96z"/>
	<path d="M125.36,129.89c-0.43,3.67-0.27,7.53-1.42,10.96c-1.78,5.33-5.39,7.96-11.31,5.83c-8.5-3.05-14.62-8.62-19-16.29
		c-3.8-6.65-7.87-13.2-11.02-20.15c-3.51-7.74-7.05-15.58-8.18-24.19c-0.53-4.01-1.57-7.95-1.95-11.97C72.1,69.96,73,66,76.1,62.93
		c0.73-0.72,1.82-1.31,2.82-1.49c4.24-0.75,8.52-0.71,12.76,0.09c1.06,0.2,2.18,0.54,3.07,1.13c3.76,2.48,7.29,5.24,10.17,8.75
		c1.04,1.27,2.19,2.47,3.05,3.85c2.24,3.62,4.54,7.22,6.47,11.01c2.03,3.99,3.85,8.1,5.38,12.3c1.19,3.27,1.9,6.73,2.63,10.14
		c0.87,4.07,1.74,8.16,2.23,12.28c0.35,2.91,0.07,5.89,0.07,8.84C124.95,129.86,125.15,129.88,125.36,129.89z M119.04,130.53
		c-0.68-3.87-1.36-7.74-2.04-11.61c-0.19-1.08-0.55-2.14-0.62-3.22c-0.42-7.2-2.46-13.97-5.41-20.5c-1.3-2.89-2.35-5.91-3.85-8.68
		c-1.62-2.98-3.61-5.75-5.48-8.59c-1.89-2.87-4.16-5.39-7.23-7.04c-3.19-1.72-6.55-2.57-10.11-1.29c-3.41,1.23-4.68,3.66-4.05,7.19
		c0.32,1.83,0.7,3.68,0.7,5.52c0,4.93,1.22,9.53,3.21,13.99c2.99,6.7,5.85,13.46,8.87,20.15c0.76,1.68,1.85,3.21,2.87,4.77
		c1.55,2.38,3.2,4.69,4.75,7.08c3.08,4.76,6.7,8.95,11.88,11.51c2.27,1.12,3.55,0.75,4.45-1.6
		C117.91,135.81,118.35,133.19,119.04,130.53z"/>
	<path d="M509.65,109.04c-0.16,3.53-0.08,6.99-1.8,10.29c-1.6,3.06-3.58,5.42-7.09,6.34c-2.63,0.69-5.24,2.2-7.95,1
		c-2.37-1.05-4.84-2.31-6.66-4.09c-5.6-5.45-9.04-12.07-9.29-20.05c-0.09-2.84,0.04-5.68,0.11-8.53c0.01-0.54,0.15-1.09,0.3-1.62
		c0.55-1.9,1.59-2.74,3.24-2.66c1.59,0.08,2.42,1.07,2.57,3.21c0.21,3.06,0.28,6.14,0.59,9.19c0.4,3.92,0.82,7.85,2.87,11.38
		c1.43,2.46,3.33,4.29,6.04,5.31c4.3,1.61,7.94-0.42,9.36-4.83c2.08-6.43,1.7-12.9,0.1-19.18c-1.83-7.21-3.23-14.6-6.55-21.36
		c-1.05-2.14-2.4-4.14-3.72-6.13c-0.97-1.46-2.16-2.77-3.16-4.21c-1.33-1.92-3.09-3.21-5.05-4.52c-3.76-2.51-7.67-4.61-11.75-6.49
		c-0.85-0.39-1.59-1.18-2.19-1.94c-4.73-5.89-7.76-12.46-7.48-20.19c0.12-3.56,0.96-6.93,3.25-9.81c1.18-1.49,2.59-2.27,4.53-2.12
		c2.84,0.21,5.7,0.27,8.54,0.51c2.38,0.21,4.48,1.14,5.85,3.2c2.25,3.37,4.35,6.79,5.63,10.7c0.77,2.36,2.19,4.5,3.26,6.76
		c0.6,1.27,1.29,2.56,1.53,3.92c0.24,1.36-0.39,2.63-1.82,3.17c-1.34,0.5-2.42-0.14-3.11-1.23c-1.15-1.84-2.17-3.78-3.22-5.68
		c-0.53-0.95-1.02-1.93-1.52-2.89c-1.37-2.62-2.88-5.17-4.08-7.87c-1.57-3.52-7.17-5.57-10.19-2.76c-2.26,2.11-3,6.88-1.01,9.29
		c2.01,2.44,4.18,4.76,6.34,7.06c3.07,3.26,6.2,6.47,9.3,9.7c0.3,0.32,0.58,0.7,0.94,0.91c5.62,3.24,8.56,8.97,12.61,13.65
		c0.42,0.49,0.87,1.04,1.06,1.65c2.14,6.99,5.98,13.4,6.98,20.79c0.57,4.22,1.6,8.37,2.21,12.59
		C509.57,103.99,509.52,106.53,509.65,109.04z"/>
	<path d="M620.57,98.21c0,1.43-0.14,2.87,0.03,4.27c0.6,5.01-2.69,8.15-5.62,11.3c-0.96,1.03-3.07,1.64-4.51,1.44
		c-4.13-0.56-7.97-1.81-11.02-5.17c-3.6-3.95-6.33-8.45-8.74-13.06c-2.26-4.33-3.52-9.17-5.21-13.8c-1.16-3.19-2.34-6.37-3.41-9.59
		c-0.76-2.28-1.57-4.58-1.97-6.93c-0.92-5.39-2.66-10.61-2.81-16.17c-0.09-3.35-0.93-6.7-1.62-10.01c-0.97-4.69-0.65-9.4-0.4-14.1
		c0.23-4.36,3.14-6.6,7.5-6.13c4.92,0.53,8.04,3.48,10.48,7.49c2.54,4.18,4.71,8.54,8.03,12.29c2.33,2.63,3.63,6.19,5.32,9.38
		c0.82,1.54,1.38,3.23,2.24,4.75c4.01,7.13,6.25,14.86,8.04,22.77c0.6,2.67,1.16,5.37,2.01,7.96
		C620.33,89.25,620.6,93.7,620.57,98.21z M585.75,27.6c-2.97-1.25-3.57-0.98-3.91,1.45c-0.11,0.76-0.18,1.54-0.11,2.3
		c0.3,3.26,0.69,6.51,0.99,9.77c0.25,2.72,0.2,5.49,0.68,8.17c1.12,6.36,2.41,12.69,3.78,19c0.55,2.56,1.35,5.09,2.28,7.53
		c2.42,6.34,5.16,12.55,7.42,18.95c1.38,3.9,3.79,7.1,5.94,10.5c1.11,1.76,2.84,2.6,4.84,3.12c3.3,0.86,4.13,0.58,5.02-2.68
		c1.53-5.59,1.5-11.34,0.38-16.93c-1.26-6.32-3.01-12.55-4.81-18.74c-1.07-3.66-2.52-7.23-4.04-10.73c-1.39-3.2-3.08-6.28-4.7-9.37
		c-0.86-1.64-1.84-3.23-2.83-4.8c-1.03-1.66-2.14-3.28-3.2-4.93c-1.59-2.47-2.95-5.05-5.69-6.65
		C585.7,32.33,584.35,30.4,585.75,27.6z"/>
	<path d="M523.29,62.37c-0.35-6.13,1.49-14.42,5.25-22.25c1.74-3.62,3.67-7.24,7.63-9.17c2.66-1.3,8.93-0.94,11.24,0.83
		c2.96,2.26,6.17,4.39,7.27,8.18c0.95,3.24,1.78,6.58,2.11,9.93c0.54,5.45,0.79,10.94,0.83,16.41c0.02,3.26-0.55,6.53-0.94,9.78
		c-0.23,1.96-0.61,3.9-0.94,5.84c-0.97,5.82-1.72,11.7-3,17.45c-0.68,3.05-2.25,5.91-3.49,8.83c-0.9,2.13-2.8,3.05-4.88,3.5
		c-1.49,0.32-3.05,0.31-4.57,0.45c-1.56,0.14-2.79-0.48-3.75-1.65c-3.05-3.71-5.82-7.37-7.44-12.19
		C524.95,87.43,523.78,76.31,523.29,62.37z M550.92,62.02c-0.32-6.03-0.32-12.04-1.91-17.95c-0.48-1.77-1.14-3.27-2.41-4.55
		c-3.35-3.37-6.34-3.04-8.2,1.2c-1.66,3.77-3.11,7.59-5.05,11.28c-4.15,7.88-3.57,16.61-2.81,25.11c0.72,7.97,2.93,15.69,5.65,23.22
		c0.54,1.49,1.5,2.95,2.62,4.09c1.64,1.67,3.4,1.4,4.69-0.52c0.79-1.17,1.43-2.47,1.94-3.79c2.26-5.85,3.8-11.86,4.12-18.16
		c0.11-2.18,0.56-4.34,0.82-6.52c0.21-1.73,0.46-3.46,0.51-5.2C550.98,67.5,550.92,64.76,550.92,62.02z"/>
	<path d="M248.23,108.91c-0.12,0.78-0.21,1.66-0.38,2.51c-0.22,1.12-0.63,2.13-1.95,2.35c-1.38,0.23-2.75,0.13-3.5-1.18
		c-0.86-1.5-1.73-3.07-2.18-4.72c-1.96-7.18-3.8-14.4-5.62-21.63c-1.44-5.74-2.46-11.61-4.23-17.24
		c-2.52-8.04-5.56-15.92-8.37-23.87c-1.1-3.1-2.24-6.19-3.28-9.3c-0.27-0.81-0.46-1.77-0.28-2.58c0.2-0.89,0.67-2.08,1.37-2.39
		c0.61-0.28,1.73,0.39,2.54,0.8c0.96,0.49,1.76,1.34,2.75,1.7c2.27,0.83,3.14,2.46,3.46,4.73c0.45,3.24,0.88,6.51,1.72,9.66
		c0.93,3.48,2.41,6.82,3.48,10.27c1.65,5.33,3.42,10.64,4.67,16.07c1.83,7.91,4.03,15.7,6.62,23.39c1.04,3.1,1.93,6.24,2.86,9.38
		C248.08,107.49,248.11,108.16,248.23,108.91z"/>
	<path class="st0" d="M119.04,130.53c-0.69,2.66-1.13,5.27-2.06,7.7c-0.9,2.35-2.18,2.72-4.45,1.6c-5.18-2.55-8.8-6.75-11.88-11.51
		c-1.54-2.39-3.2-4.7-4.75-7.08c-1.01-1.55-2.11-3.09-2.87-4.77c-3.02-6.69-5.88-13.45-8.87-20.15c-1.99-4.46-3.21-9.06-3.21-13.99
		c0-1.84-0.37-3.7-0.7-5.52c-0.63-3.53,0.64-5.96,4.05-7.19c3.55-1.28,6.91-0.43,10.11,1.29c3.07,1.65,5.34,4.17,7.23,7.04
		c1.87,2.83,3.87,5.61,5.48,8.59c1.5,2.77,2.55,5.79,3.85,8.68c2.95,6.53,4.99,13.3,5.41,20.5c0.06,1.08,0.42,2.14,0.62,3.22
		C117.68,122.79,118.36,126.66,119.04,130.53z"/>
	<path class="st0" d="M585.75,27.6c-1.4,2.81-0.06,4.73,2.03,5.95c2.74,1.59,4.1,4.17,5.69,6.65c1.06,1.65,2.16,3.27,3.2,4.93
		c0.98,1.58,1.96,3.16,2.83,4.8c1.63,3.1,3.31,6.17,4.7,9.37c1.52,3.5,2.98,7.07,4.04,10.73c1.8,6.19,3.56,12.42,4.81,18.74
		c1.12,5.6,1.15,11.34-0.38,16.93c-0.89,3.26-1.72,3.54-5.02,2.68c-2-0.52-3.73-1.36-4.84-3.12c-2.15-3.4-4.56-6.59-5.94-10.5
		c-2.26-6.39-5-12.61-7.42-18.95c-0.93-2.45-1.73-4.97-2.28-7.53c-1.37-6.31-2.65-12.64-3.78-19c-0.47-2.68-0.43-5.45-0.68-8.17
		c-0.3-3.26-0.69-6.51-0.99-9.77c-0.07-0.76,0-1.54,0.11-2.3C582.18,26.61,582.79,26.34,585.75,27.6z"/>
	<path class="st0" d="M550.92,62.02c0,2.74,0.06,5.48-0.02,8.21c-0.05,1.74-0.3,3.47-0.51,5.2c-0.26,2.17-0.71,4.34-0.82,6.52
		c-0.33,6.3-1.86,12.31-4.12,18.16c-0.51,1.32-1.16,2.62-1.94,3.79c-1.29,1.93-3.05,2.19-4.69,0.52c-1.11-1.14-2.08-2.6-2.62-4.09
		c-2.72-7.53-4.93-15.25-5.65-23.22c-0.77-8.5-1.35-17.23,2.81-25.11c1.94-3.69,3.39-7.5,5.05-11.28c1.87-4.24,4.86-4.57,8.2-1.2
		c1.27,1.28,1.94,2.78,2.41,4.55C550.59,49.98,550.6,55.99,550.92,62.02z"/>
</g>
</svg>
