<svg width="450.00000000000006" height="450.00000000000006" xmlns="http://www.w3.org/2000/svg">
 <defs>
  <style>.cls-1{fill:#fff;}</style>
 </defs>
 <title>face</title>
 <g>
  <title>background</title>
  <rect fill="none" id="canvas_background" height="452" width="452" y="-1" x="-1"/>
 </g>
 <g>
  <title>Layer 1</title>
  <g id="svg_9">
   <path fill="#c5392a" stroke="#c5392a" id="svg_2" d="m399.5,109.499999c3,14 5,27 10,41s10,9 12,15s2,15 3,23s3,20 5,30s6,15 8,22s-6,30 -20,38l-24,15l-3,0l-4,-8l2,-2c7,-4 13,-9 21,-10s25,-20 19,-34s-14,-37 -11,-58c1,-5 -4,-12 -7,-17c-11,-19 -14,-40 -16,-61c-1,-10 -7,-20 -12,-28s-15,-15 -22,-24s-6,-12 -10,-16s-8,-4 -13,-4s-19,-2 -29,-1s-28,2 -41,7s-21,14 -30,22s2,8 3,12l7,29l-3,3l-4,-2c-2,-10 -4,-21 -6,-31s-12,-17 -24,-16s-12,-2 -18,-1s-16,6 -25,8l-34,4c-5,1 -11,2 -15,6s-25,25 -38,36s-16,6 -23,10s-6,7 -8,11s-10,21 -16,31s-13,13 -15,21s1,15 4,22s8,20 1,32s-2,27 9,36s16,18 14,31s4,18 18,23l40,12l10,4l1,0l0,-2c-3,-12 -3,-25 -9,-36s-9,-27 -4,-41s12,-38 21,-55s17,-16 25,-25s6,-10 9,-15s11,-18 18,-25a104,104 0 0 1 31,-18c11,-4 23,-6 34,-5s20,7 29,10s10,4 14,7l30,26c11,10 23,21 33,32s14,16 18,25s7,24 10,36l10,32l10,36c2,6 5,13 5,19s-2,9 -3,14s-2,24 -4,36s-15,21 -28,24s-28,7 -41,8s-38,0 -57,0l-13,3c-6,1 -13,3 -19,1c-17,-3 -34,-6 -50,-13s-29,-16 -42,-27s-12,-18 -17,-27l-8,-16c-1,-1 -4,-1 -5,-2l-24,-8l-21,-5c-15,-2 -26,-15 -28,-29s-8,-17 -12,-26s-10,-17 -13,-26s0,-14 3,-20s1,-21 -3,-30s-3,-30 9,-41s13,-17 16,-26s14,-23 29,-28s17,-14 25,-22s28,-26 50,-24c9,1 20,-3 28,-7s22,-5 33,-4l6,-2l19,5l4,-3c12,-6 23,-13 35,-18s20,-6 31,-7s17,0 25,1s20,0 28,5s15,16 22,24s15,18 21,28s5,18 7,27l-3,3zm-78,310c8,-1 15,-1 20,-3s24,-7 33,-14s8,-17 11,-26c9,-28 7,-56 -5,-83c-5,-12 -8,-26 -12,-39s-3,-24 -9,-33a303,303 0 0 0 -40,-47c-17,-16 -32,-34 -54,-43s-29,-12 -45,-8s-21,5 -29,11a108,108 0 0 0 -28,29c-6,10 -10,20 -20,27s-21,21 -26,35s-8,25 -11,38a82,82 0 0 0 -2,24c0,5 5,9 7,14s4,22 8,32s10,23 16,35s8,14 14,20s13,8 20,12l11,7l41,15c14,5 27,2 40,-2a107,107 0 0 1 29,-3c12,-1 22,1 31,2z"/>
   <path fill="#c5392a" stroke="#c5392a" id="svg_3" d="m260.5,362.499999l-2,0l4,-5c6,-5 6,-14 1,-20s-7,-15 -10,-22s-7,-21 -9,-32s1,-4 2,-5l4,0a50,50 0 0 0 1,6c3,10 5,21 9,31s10,22 15,33s-7,14 -15,14z"/>
   <path fill="#c5392a" stroke="#c5392a" id="svg_4" d="m309.5,243.499999l-25,-2c-11,0 -19,7 -26,15l-4,2c0,-2 -1,-4 0,-4s17,-17 29,-17s18,3 27,4s1,2 0,3l-1,-1z"/>
   <path fill="#c5392a" stroke="#c5392a" id="svg_5" d="m218.5,256.499999l-5,0c-16,-3 -31,-3 -43,11l-2,3l-4,2c-1,-2 -2,-4 -1,-5s21,-19 33,-18l18,0c2,3 3,5 4,7z"/>
   <path fill="#c5392a" stroke="#c5392a" id="svg_6" d="m282.5,269.499999l-18,2l-3,0c0,-2 0,-5 0,-7l5,0c8,-1 16,-1 24,-4s10,-6 15,-10l3,0c0,2 0,6 -1,7l-22,12l-3,0z"/>
   <path fill="#c5392a" stroke="#c5392a" id="svg_7" d="m188.5,286.499999l-15,0c-1,0 -2,-3 -2,-4l4,0c8,3 28,-4 36,-12s5,-2 7,-2s1,3 1,3s-3,4 -5,6l-26,9z"/>
   <path fill="#c5392a" stroke="#c5392a" id="svg_8" d="m273.5,400.499999c-2,-2 -5,-4 -6,-6s2,-5 4,-6l12,-6l4,3l0,3l-6,8l-8,4z"/>
  </g>
 </g>
</svg>