<svg xmlns="http://www.w3.org/2000/svg" viewBox="0 0 1130.1 1177.37"><defs><style>.cls-1{fill:#c5392a;stroke:#c5392a;stroke-miterlimit:10;stroke-width:0.75px;}</style></defs><title>Asset 8</title><g id="Layer_2" data-name="Layer 2"><g id="Layer_1-2" data-name="Layer 1"><path class="cls-1" d="M501.65,1155.92c-11.77-2.74-23.51-5.63-35.33-8.16-6.5-1.39-13.15-2.1-19.71-3.24-6.12-1.06-12.21-2.35-18.33-3.42-8.77-1.54-17.78-2.21-26.29-4.63-11.67-3.33-23-7.79-34.42-12.08-9.17-3.46-18.34-7-27.15-11.26-5.52-2.65-10.34-6.72-15.56-10a48.1,48.1,0,0,0-5.73-2.7c-.13-.06-.39,0-.46,0-2.66-3-5.06-6.34-8-9-4.09-3.75-8.61-7-12.9-10.58a3,3,0,0,1-1-1.74c-.23-1.59.27-3.5-.45-4.75-2.31-4-5.53-7.52-7.48-11.66-2.59-5.48-4.41-11.35-6.4-17.1-2.64-7.62-5.52-15.19-7.57-23-3.06-11.64-10-21.08-16-31.19-7-11.82-12.81-24.28-19.49-36.27-2-3.54-5.27-6.32-7.69-9.65a27.67,27.67,0,0,1-2.58-5.57c-.18-.42,0-1-.17-1.4-2.87-5.23-6-10.34-8.61-15.68-1.27-2.56-1.63-5.56-2.62-8.29-.68-1.88-1.87-3.58-2.59-5.45-2.23-5.78-4.17-11.67-6.53-17.39-4.56-11.08-4.09-22.48-3.22-34.11.72-9.63,0-19.36.43-29,.38-8.71,1.79-17.37,2.1-26.08.29-8.22-.34-16.47-.39-24.71,0-4.14.35-8.29.46-12.44,0-.89-.44-1.78-.45-2.68-.05-2.74,0-5.47,0-8.21,0-2.94-.22-5.89,0-8.81a318.88,318.88,0,0,1,6.28-45c2.21-9.93,1.23-20.54,2.15-30.8.7-7.8,2.11-15.54,3.29-23.29.83-5.4,1.26-11,2.86-16.13,3.48-11.31,6.84-22.76,11.66-33.52a171,171,0,0,1,16.38-28.12c3.24-4.61,8.79-7.6,13.32-11.3,5.62-4.59,11.42-9,16.82-13.8,2.48-2.22,3.65-6.2,6.36-7.8,9.84-5.82,12.94-16.11,18-25.18,2.63-4.73,5.66-9.24,8.29-14a81,81,0,0,0,3.18-7.56c5.18-12.09,10-24.32,15.68-36.2,3-6.34,7.41-12,11-18.07,1.23-2.07,1.61-4.69,3-6.6,4.41-6.07,10.52-11.33,13.35-18,3.59-8.46,12.1-12.05,16.06-19,4.14-7.22,11-9.51,16.49-14.12a169.86,169.86,0,0,1,14.9-11.27c8-5.31,16.61-9.69,24.21-15.47,8.11-6.18,17.1-9.79,26.54-13.16,5.39-1.92,11.93-2.88,15.13-9.17.5-1,3.54-.52,5.3-1.07,10.6-3.31,21.53-5.9,31.67-10.3,12.28-5.32,25.44-5.2,38.06-8.13a13.93,13.93,0,0,1,3.8-.4c12.48.63,23.67-5.29,35.68-7,2.92-.41,5.9-.47,8.79-1,14-2.61,28.67-3.74,42,.24s28.11,5.13,40.17,13.85c6.17,4.45,13.74,6.92,20.06,11.2,5.45,3.69,10,8.7,15,13.06a7.23,7.23,0,0,0,2.53,1.22c1.21.39,2.6.39,3.7,1,9.74,5,19.39,10.22,29.19,15.1,2.44,1.22,5.51,1.16,8,2.26,13.44,5.87,26.75,12,40.2,17.89,12.37,5.39,25.2,9.85,37.18,16,8.7,4.46,16.29,11.07,24.46,16.6,3.29,2.23,7.1,3.75,10.13,6.25,9.51,7.84,18.72,16.06,28.14,24,5.34,4.51,11,8.68,16.22,13.3,1.78,1.57,2.9,4,4,6.15,6,11.38,12.16,22.69,17.75,34.27,3.12,6.46,5.09,13.46,7.83,20.12,1.68,4.09,4.26,7.84,5.66,12,1.78,5.32,2.6,11,4.17,16.37,1.64,5.64,3.71,11.15,5.57,16.72,4,12,8.12,24,11.91,36.06,1,3.06.58,6.53,1.34,9.68.95,3.94,2.86,7.67,3.59,11.64q2.54,13.66,4.3,27.46c1.22,9.41,3.06,18.92,2.73,28.31-.37,10.87-3.4,21.62-4.18,32.5-.88,12.15-5.29,23.88-3.45,36.41.94,6.44-.29,13.19-.4,19.8-.11,6.78-.16,13.57,0,20.35.19,8.2.47,16.4,1,24.59.82,12.79,1.61,25.58,2.91,38.32,1.65,16.08,3.77,32.1,5.75,48.14.84,6.77,2.57,13.52,2.62,20.28.11,15.26.57,30.65-1.2,45.74-2.35,20-8.62,39.11-20.82,55.53-4.07,5.48-9.7,9.88-15,14.37s-12.07,7.55-16.12,12.83c-6.2,8.09-15.12,11.9-22.6,17.88-8.21,6.58-15.5,14.38-22.76,22.06-5,5.27-11.11,10.58-13.32,17-3.66,10.68-12.06,17.26-18.33,25.55-4.45,5.88-11.64,9.58-17,14.88-10,9.89-24.56,10.2-35.86,17.68-6,4-14.42,4.49-21.77,6.5-8,2.2-16,4.56-24.15,6.41-9.51,2.17-18.93,3.49-28.81.5-5.56-1.68-11.9-.66-17.88-1.1-12.32-.91-24.11,2-36.06,4.25-6.68,1.28-13.68.83-20.52,1.34q-12,.88-24,2.09c-5.7.58-11.37,1.46-17.06,2.11a5.71,5.71,0,0,1-3.26-.33c-8.13-4.67-16.91-3.23-25.63-3.23-3.53,0-7-1.61-10.6-2.28-5.95-1.12-11.45-3.58-18.1-1.75-6.32,1.74-13.35.65-20,1.55-12.8,1.74-12.78,1.83-14.18-11.24-.16-1.53-2.52-3.72-4.17-4-4.82-1-9.8-1.12-14.72-1.6ZM551.33,329.1l-.24-1.24c-2.15.42-4.3.81-6.44,1.28-7.19,1.56-14.43,2.93-21.54,4.77-9.43,2.44-18.88,4.89-28.09,8-6.59,2.25-12.74,5.75-19.19,8.47-9.66,4.08-19.56,7.61-29.05,12A176.86,176.86,0,0,0,424,375a184.88,184.88,0,0,0-19.08,15.14c-9,7.86-18,15.83-26.55,24.17-5,4.88-10.12,10.06-13.58,16-6.51,11.22-12,23.08-17.69,34.75-4.44,9.05-10.45,17.21-12.65,27.56-1.43,6.7-6.1,12.7-9.29,19-1.89,3.74-3.66,7.53-5.59,11.25s-3.62,8-6.3,11.34c-6,7.48-12,15.14-19.16,21.47-3.48,3.08-3.83,9.19-10.21,9.79-2.71.25-5.24,3.57-7.64,5.72-1.42,1.27-2.13,3.51-3.68,4.41C261.63,582,255,591.63,250.7,603.15c-3.48,9.42-7.9,18.3-8.87,28.86-.56,6.08-3.7,12.34-4.2,19.06-.86,11.64-2.49,23.22-3.87,34.82q-1.19,10-2.61,19.88c-1.35,9.4-3.14,18.76-4.07,28.2-.64,6.4,1.23,13.31-.48,19.29-2.24,7.8,1.21,14.86.44,22.45-1.24,12.24-.35,24.71-.4,37.07a13.7,13.7,0,0,1-.49,2.81c-1,4.65-2.66,9.26-2.94,13.95a152.32,152.32,0,0,0,.32,21.39c.41,5.07-3.33,10.75,1.94,15.25a2.17,2.17,0,0,1-.12,2.07c-3.87,4.33-2.68,9.8-1.58,14.1,2,7.69,5.92,14.86,8.72,22.37,1.07,2.88.21,7.24,2.05,8.93,6,5.44,6.81,13.33,10.42,19.81,7.58,13.6,16.88,26.18,23.33,40.57,2.88,6.41,5.6,13.73,11.42,19.14,3.39,3.16,4.89,8.56,6.71,13.16,4.9,12.42,9.51,25,14.23,37.45,1.51,4,2.33,8.45,4.67,11.87,6,8.82,11.32,17.93,20.28,24.92s15.48,16.05,27.29,19.16c8.3,2.19,16.22,6.19,23.91,10.17,4,2.06,7.39,4.05,11.89,2.22a2.88,2.88,0,0,1,2.3.39,45.13,45.13,0,0,0,19.52,7.68c9.22,1.38,18.19,4.35,27.36,6.13,8.32,1.61,16.84,2.21,25.15,3.87,10.2,2,20.19,5.28,30.44,7,8.36,1.38,17,1.57,25.47,1.67,7.05.09,10.16,2.4,9.08,8-1.37,7.12-1.37,7.16,6,7.12,1.73,0,3.46-.51,5.2-.58,9.45-.38,18.94-1.25,28.36-.84,6.61.29,13.1,3,19.72,3.5,8.25.65,16.67-.4,24.38,3.72a2.4,2.4,0,0,0,1.39.08c4.81-.76,9.59-2,14.43-2.25,10.61-.53,21.24-.55,31.86-.82a81.73,81.73,0,0,0,8.49-.53c13.3-1.74,26.56-3.86,39.9-5.25,5-.52,10.26.85,15.4.86,5.44,0,11.41-2.16,16.2-.55,8.4,2.83,16.25.26,23.84-1,11.5-2,22.44-7,33.85-9.77,14.52-3.54,25.53-13,36.9-21.43,10.47-7.77,17.08-19.42,24.57-30.15a253.94,253.94,0,0,1,26.84-32.31c6.69-6.82,15.57-11.44,23.15-17.43,6.62-5.24,12.92-10.91,19.15-16.61,8.73-8,18.45-15.13,23.83-26.17,3.58-7.34,8-14.43,10.38-22.16,2.07-6.83,1.93-14.37,2.49-21.62a367.69,367.69,0,0,0-.85-61.6c-2.17-23.79-8-47.2-7.2-71.3.24-7-.71-14-.77-21-.11-11.63-2.13-23.15-1.54-34.83.39-7.68-.13-15.4.15-23.09.29-8,.75-16.07,1.66-24,1.09-9.58,2.78-19.09,4.09-28.64a10.57,10.57,0,0,0-.33-5.21c-1.33-3.23,2.87-7-1.07-9.88-.1-.07.62-1.06.75-1.66,1-4.37,3.16-8.9,2.65-13.1a353.07,353.07,0,0,0-6.51-38c-4-17.19-8.95-34.19-13.81-51.17-2.18-7.62-5.31-15-7.7-22.52-2.78-8.77-4.51-17.94-8-26.38-3.58-8.6-8.8-16.51-13.25-24.75-2.78-5.15-6.43-10.09-7.93-15.6-2.46-9-8.19-15.24-14.74-20.93-6.09-5.29-13-9.69-19.16-14.88-6-5-11.1-11.06-17.34-15.65A305.19,305.19,0,0,0,826,410.55a174.47,174.47,0,0,0-21-10c-18.25-7.59-36.67-14.78-54.91-22.39-7.54-3.15-14.88-6.83-22.16-10.55-8-4.09-16.1-8.13-23.72-12.9-6.42-4-12.15-9.11-18.31-13.56-1.46-1.06-3.52-1.25-5.07-2.22-5.48-3.4-10.45-8.24-16.38-10.19-11.16-3.68-22.84-5.81-34.34-8.41-3.95-.89-8.05-1.95-12-1.72-10.06.57-20.11,1.57-30.1,2.87-6.43.84-12.76,2.51-19.12,3.85C563,326.59,557.18,327.86,551.33,329.1Z"/><path class="cls-1" d="M649,145.51c.62,6.83,1.58,13.64,1.73,20.48.1,4.37-1.24,8.76-1.47,13.16-.27,5.34,0,10.7,0,16.06,0,7.34,0,14.67,0,22,0,.92-.91,2-.67,2.72,2.23,7.18-3.26,10.69-7.85,11.79-3,.72-8.82-2.82-10.54-6-2.23-4.12,1.64-10.3-2.82-14.66,4.28-4.18,1-8.94,1.13-13.48.33-16.44,1.06-32.87,1.28-49.31a43.06,43.06,0,0,0-7-24.28c-2-3-2.3-7.09-3.57-10.61-4.79-13.21-9.6-26.23-17.09-38.48-4.89-8-12.35-7.28-18.5-10.6-3.58-1.93-8.17-1.9-12.12-3.28-8.35-2.92-16.43-6.74-24.91-9.13-6.11-1.72-12.57-3.25-19.11-.07-3.36,1.63-7.39,1.82-11.07,2.83-3.4.94-7.2,3.67-10,2.85-5.8-1.68-10,3.06-15.51,2.22-2.72-.42-5.76,1.9-8.76,2.46-5.14,1-10.4,1.29-15.53,2.29a73.17,73.17,0,0,0-10.24,3.15c-9.3,3.29-18.54,6.79-27.87,10-5.67,2-11.44,3.66-17.23,5.24-17.34,4.73-34.69,9.19-50.49,18.42-6.32,3.69-14.38,4.35-20.86,7.85-8.4,4.53-17.09,9.47-23.63,16.2-5.44,5.6-11.82,9.66-17.38,14.81-8.27,7.66-15.52,16.4-23.56,24.33-3.37,3.32-8.1,5.28-11.42,8.64-8.36,8.43-17.18,15.58-28.65,19.9-8,3-14.8,9.08-22.3,13.51-4.77,2.82-10,4.87-14.75,7.72a49.2,49.2,0,0,0-18.52,20.1c-1.39,2.7-3.65,4.94-5.22,7.56-2,3.37-3.79,6.89-5.6,10.39-1.38,2.68-2.35,5.61-4,8.08-8.92,13.27-12.4,28.21-14.1,43.81A176.28,176.28,0,0,1,147.15,327c-1.1,4.5-4,8.56-6.14,12.82a12.42,12.42,0,0,0-1.25,2.5c-3.15,13.65-9.87,25.51-19,35.92-7,8-14.68,15.53-22.3,23-2.56,2.51-6.67,3.68-8.67,6.47-5.14,7.18-13.69,11.19-17.16,20-2.06,5.25-6.29,9.65-9.54,14.44-2.86,4.23-6.11,8.26-8.46,12.76A95,95,0,0,0,49,469.36c-2.39,7.29-4.43,14.69-6.62,22a3.6,3.6,0,0,0-.27,1.3c.65,6.38,1.18,12.79,2.09,19.14.35,2.41,1,5.3,2.61,6.87,2,2,.63,4.41,2.22,6.82,3.7,5.58,5.45,12.54,7.51,19.09,1.95,6.2,4.31,12.54,4.65,18.92a140.45,140.45,0,0,1-1.29,28.85c-.68,4.42-4.87,8.3-7.43,12.44-3.78,6.09-7.35,12.33-11.36,18.27-2.75,4.07-6.08,7.74-9.16,11.57-.4.5-1.19.86-1.29,1.38-1.69,8.81-10.72,14.26-10.61,24.06.05,4.45-2.64,9-2.39,13.37a279.57,279.57,0,0,0,3.6,33.09C22.53,714,26,721,27.85,728.36c1.61,6.25,2.47,12.7,3.48,19.09,1.64,10.31,3.27,20.63,4.67,31s4.65,21.27,3.25,31.4c-2,14.26-1.65,28.34-1.55,42.52.06,8.26.78,16.54,1.59,24.77.7,7.15,1.3,14.42,3.12,21.34,2.3,8.76,5.78,17.21,8.76,25.79.26.75.85,1.54.77,2.25-1.12,10.21,6.14,16.9,11.59,23.35s13.63,10.29,20.86,14.93c7.07,4.54,14.61,8.34,21.55,13.05,2.46,1.67,3.66,5.13,5.58,7.65,4.56,6,9.22,11.93,13.83,17.89.39.5,1,1,1.07,1.56.64,7.24,5.75,6.65,10.82,6.34s10.41-.21,15.56-.8c7.46-.86,14.86-2.25,22.31-3.23a5.33,5.33,0,0,1,3.92,1c4.57,4.4,10.06,4.21,15.82,4.2a12,12,0,0,1,8,3.1c1.33,1.4,1.43,5.34.41,7.26-1.72,3.23-5.12,6-9.09,3.91-6.25-3.34-11,1.18-16.39,2.23a8,8,0,0,1-2.3.37c-7.87-.91-15.72-2.58-23.59-2.63a81.62,81.62,0,0,0-21.95,2.72c-9.17,2.52-12.29,1.53-16.27-6.95s-9.39-16.3-12.65-25c-2.68-7.16-9.23-8.14-14.15-11.56-6.08-4.23-13.08-7.11-19.33-11.12C61.64,971,55.63,967,50.64,962.13c-12.22-12-18-27.46-22-43.76-2.13-8.79-4.61-17.49-6.64-26.31-1-4.16-1.1-8.49-1.8-12.71-.41-2.45-1.16-4.85-1.8-7.26-.16-.6-.73-1.21-.64-1.73,3.61-22.12.87-44.51,2.7-66.64,1-11.76-3.51-22.07-4.77-33.14a152.65,152.65,0,0,0-3-15.92c-.41-1.82-1.54-3.46-2.24-5.23-.23-.58-.44-1.63-.15-1.88,3.55-3.1.28-5.89,0-8.93-.59-7.14-6-12.8-4.87-20.63.67-4.68-2.56-9.79-3-14.79-.94-11-.81-22.15-1.9-33.16-1-9.84,1.3-19,4.69-27.86,2.07-5.38,6-10.06,9.26-15,4.26-6.44,8.54-12.88,13.08-19.12,1.66-2.28,4.39-3.77,6.1-6a48.16,48.16,0,0,0,4.21-7.73c4.21-8.45,7.35-17.44,5.21-26.79-3-13.21-6.06-26.41-12.55-38.71-3.53-6.68-6.39-15.07-5.6-22.25.61-5.52-.32-10.6,0-15.81.37-6.17,2.57-12.22,3.85-18.35a34.34,34.34,0,0,0,1.07-8c-.25-7.61,5.81-12.23,8.58-18.39,3.67-8.16,8.78-15.7,13.48-23.37,2.4-3.93,5.84-7.32,7.72-11.45,1.33-2.92,7.14-5.83,1.6-10.1a26.93,26.93,0,0,1,1.45-2.28c5.26,3.49,8.36.06,12.09-3.18,6.18-5.36,14.33-9,19-15.38,5.74-7.77,16.43-12.94,15.55-24.93a1.29,1.29,0,0,1,.81-1c9-1,8.62-9.65,12.32-15,5.56-8,4.9-17.27,6.08-26.28,1.61-12.37,4-24.66,6.53-36.87.79-3.75,3.49-7.07,5-10.72,4-9.47,7.71-19,11.64-28.52a14,14,0,0,1,2.84-4.91c9.14-8.57,14.89-19.92,24.79-28.21a170.49,170.49,0,0,1,16.28-12.44c5.89-3.81,13.18-5.38,19.45-8.7,6.07-3.22,11.7-7.31,17.37-11.24s12.15-7.23,16.3-12.4c3.69-4.59,8.81-6.23,12.59-9.66,9-8.11,16.46-17.82,24.92-26.53,3.63-3.74,8.1-6.68,12.27-9.86,3.71-2.83,8.67-4.76,11.06-8.42,3.82-5.84,9.92-7.27,15-10.59.87-.56,1.35-2.08,1.57-3.25.38-2-.08-3.17,2.42-.86,1.18,1.1,5.24-.22,7.65-1.25,10-4.26,19.76-9.14,29.87-13.16,7.34-2.92,15.11-4.76,22.64-7.24,12.54-4.12,25-8.44,37.57-12.53,10.07-3.28,20.11-6.7,30.34-9.41,8.1-2.15,16.44-3.41,24.71-4.86,4.94-.87,10.58-.11,14.79-2.27,7.35-3.77,15.44-3.89,23-5.8C529,31,540,30.29,549.9,32.14c10.44,2,20.05,8.09,30.21,11.9,7.55,2.83,15.59,4.42,23.06,7.43,4,1.63,7.66,4.74,10.94,7.77,10.41,9.59,14.41,23.05,20.06,35.34,4.83,10.52,7.94,21.86,11.54,32.93,1.89,5.8,3.21,11.79,4.78,17.69Z"/><path class="cls-1" d="M699.29,3.54c13,0,26.07.12,39.1,0,8.28-.1,16.56-.51,24.83-1C775.63,1.82,788,.16,800.43.4c11.09.22,22.17,2.23,33.19,3.89a194.21,194.21,0,0,1,20.82,4.46c15.25,4,30.51,8.07,45.58,12.71a139.49,139.49,0,0,1,34.12,15.29c11.24,7.14,23.75,12.3,34.93,19.52,7.93,5.12,14.56,12.23,21.81,18.4,1.45,1.23,3.42,2,4.63,3.36,5.86,6.8,11.1,14.19,17.46,20.47,3.48,3.44,3.65,9.56,9.81,11,1.83.43,3,4.47,4.1,7,4.59,11.24,9.18,22.48,13.45,33.85,2.93,7.8,5.52,15.73,7.9,23.72,1.2,4,1.44,8.3,2.4,12.39.65,2.8,2,5.43,2.66,8.23,2.13,9.66,4.06,19.37,6.06,29.07a18.79,18.79,0,0,1,.54,3.28c.45,18.66.54,37.33,1.44,56,.41,8.44,2.44,16.8,3.67,25.2.64,4.38.52,9,1.84,13.12a338.92,338.92,0,0,1,9,34.11c1.32,6.3,5.42,12,7.58,18.15,2.82,8.11,5,16.43,7.38,24.7,2.28,8,4.81,16,6.46,24.13.9,4.43.34,9.19.17,13.79-.27,7-1,14-1.12,21.06-.11,4.74-1.76,9.15-.72,14.32,1,4.79-2,10.25-2.66,15.5-1.35,11-2.37,22.05-3.4,33.1a76.84,76.84,0,0,0-.43,11.47c.66,11.52,1.51,23,2.44,34.55.52,6.39,1.13,12.79,2.08,19.13,1.37,9.18,3.15,18.3,4.64,27.46.81,5,1.29,10,2,15,1.25,8.25,3,16.45,3.85,24.73,1.53,14.45,6.37,27.92,10.83,41.61,2.65,8.12,3.07,17,4.43,25.5q1.71,10.73,3.27,21.47c1.21,8.32,2.34,16.65,3.48,25,.19,1.42.16,2.87.33,4.3,1.06,9.07,2.89,18.12,3.07,27.2.34,17.5.28,35.06-.78,52.52-.33,5.48-3.88,11.06-6.9,16a206.5,206.5,0,0,1-14.9,21.23,105.51,105.51,0,0,1-12.91,13c-8.26,7.29-18.15,11.65-28.49,15.18-2.17.74-4,2.63-5.89,4-5.94,4.35-12.31,6.82-19.4,3.18-1.82-.93-4.38-3.75-4-5,1.18-4.09-1.44-9.71,5.47-11.87,8.06-2.52,15.8-6.22,23.41-10,5.23-2.57,10.08-6,15-9.2a67.57,67.57,0,0,0,21.29-21.9c3.58-6.13,7.63-12.63,6.32-20.89-.69-4.35,1.12-9.11,1.82-13.68.49-3.19,1.62-6.43,1.38-9.57-1.15-15.26-2.6-30.51-4.07-45.75-1.53-15.95-2.63-32-5-47.8-1.58-10.62-5.08-21-7.65-31.44s-5.65-21.18-7.56-31.94c-2.51-14.14-3.85-28.49-6.15-42.67-2.46-15.17-5.57-30.24-8.14-45.39-1-5.78-.24-12-2.09-17.45-3.14-9.2-2.28-18.57-2-27.69.39-13.78,3-27.49,4.33-41.26s1-27.57,3.57-40.95c2.93-15.25-1.09-29.49-4.18-43.64-3.18-14.56-9.77-28.34-14.41-42.61-3.41-10.51-6.42-21.17-9-31.91-2.37-9.88-4.68-19.88-5.65-30-1.19-12.37-.88-24.88-1.44-37.32-.1-2.16-1.68-4.24-1.8-6.4-.19-3.33.57-6.7.43-10-.35-8.2-.51-16.46-1.63-24.57-1.34-9.72-3.31-19.39-5.52-29-2.52-11-4.75-22.09-8.64-32.58-6-16.15-12-32.52-23-46.18C992.11,102.88,983,91.23,972.66,80.9c-6.6-6.58-15.18-11.34-23.32-16.17q-18.8-11.15-38.25-21.18c-6.72-3.47-14.18-8.38-21-8-7.49.44-12-5.29-19.33-4.86-6.75.39-13.71-3.63-20.64-5.49-7.48-2-14.94-4.46-22.58-5.49a218,218,0,0,0-29.58-1.87c-6.7,0-13.37,2-20.1,2.39-6.57.42-13.19-.06-19.78,0-6.32.07-12.64.31-19,.59-.48,0-1.13.83-1.34,1.4-2.5,6.8-7.39,9.65-14.38,9.14-8.39-.61-16.82-.8-25.24-1-13.22-.32-26.32.38-38.92,5.09-1.39.52-3.15,0-4.73.05-3.93.19-8.26-.54-11.7.88-6.57,2.72-14.75,2.16-19.31,9.66C622.17,48.22,611.18,44.61,609,42c-5.26-6.38-3.78-10,5.21-13.9,9.22-4,18.21-8.5,27.47-12.41,5.25-2.21,10.8-3.69,16.24-5.45A41.94,41.94,0,0,1,662.56,9q18.25-3.67,36.5-7.29Z"/><path class="cls-1" d="M652.3,746.16c-12.67,3.51-23.33-4.33-35-6.41-2.45-.44-4.36-3.43-6.75-4.86A95,95,0,0,0,600,729.46c-3.21-1.41-4.58-3.52-3.26-6.78s3.76-5.35,7.81-4.79c2,.27,4.09-.24,6.12-.13a33.31,33.31,0,0,1,6.9.91c7.46,2,14.75,5.41,22.31,6.16,10,1,20.17.24,30.23-.33,3.08-.17,6-2.36,9.09-3.32a48,48,0,0,1,9-2c11.95-1.27,20.89-8.94,30.62-14.66,5.89-3.47,7.2-10.74,9.13-17,.09-.3-1.37-1.61-1.95-1.51-6.12,1.07-12.36-3.77-18.48.4-.78.53-2.47-.2-3.72-.41-19.44-3.21-37.64.82-55.3,9-3.61,1.67-8,1.46-12,2.45-5.13,1.27-10.16,2.93-15.27,4.29a4.91,4.91,0,0,1-3.21-.19c-5.44-2.78-8,1.2-11.14,4.32a6.45,6.45,0,0,1-3.72,1.55,9.67,9.67,0,0,1-4.15-.7c-2.07-.77-5.66-1.7-5.74-2.77-.21-2.86.17-6.89,2-8.52,3.3-2.91,2.85-4.38.27-7.22-3.06-3.37-7.92-7.5-7.62-10.92.4-4.54-1.3-8.64-.68-12.86.22-1.52,2.64-2.59,3.42-4.17,1.52-3.1,2.6-6.41,3.87-9.64,3.39,2.74,7.42,5,10,8.37,2.38,3.11,3,1.75,4.09-.36.72-1.41.8-3.23,1.75-4.4,1.12-1.38,3-3.33,4.28-3.11,2,.36,4.91,1.89,5.48,3.58,1.27,3.79,1.28,8,1.93,12a47.78,47.78,0,0,0,1.25,4.77c2.41-1.25,5.88-1.9,7-3.88,1.75-3.13,1.66-7.22,2.83-10.75.71-2.14,2.35-4,3.52-6a41.19,41.19,0,0,0,3.18-5.71c.63-1.59.22-4.7,1-4.94,2.51-.79,5.71-1.52,8-.6,4.48,1.84,4.73,5.74,2.86,10a15.24,15.24,0,0,0-1.39,5.53c-.07,2.42,0,5.21,4,3.49,1.28-.55,3-.22,4.49-.07,7.71.81,13-4.44,19-7.67,7.08-3.79,13.47-9.39,22.23-8.33a118,118,0,0,1,17.09,3.24c1.64.45,4.06,3.77,3.65,4.77-.83,2-3.21,3.54-5.21,4.87-.94.62-2.73,0-3.69.57s-1.37,2.11-2,3.22c1.44.7,3.61,2.38,4.21,1.94a5.71,5.71,0,0,1,8.61,1.62c2.7,4.78,6.72,4.47,10.22,3.3,3.92-1.31,6.11-.35,8.76,2.28,6.61,6.56,7.28,9.21,3.93,17.74a10.2,10.2,0,0,0-.43,4.24c.71,11.3-4.21,20-12.75,26.74-6.25,4.93-12.56,10.08-19.6,13.62-6.85,3.45-14.6,5.21-22.07,7.29-10.5,2.93-21.08,5.57-31.68,8.13C656.88,746.59,654.54,746.16,652.3,746.16Z"/><path class="cls-1" d="M470.33,656.33c5.25-.69,8.45.06,10.38,5.25.69,1.88,5.51,2.25,8.47,3.23.38.13,1.31-.33,1.32-.29,2.84,8.47,12.7,7.37,17.64,13,5.26,6,4.5,14.71-1.81,20.43-.82.74-1.93,1.47-2.21,2.41a15.68,15.68,0,0,0-.13,4.22c.71-.82,1.41-1.66,2.13-2.47.39-.43.81-.83,1.22-1.24.29.5.61,1,.88,1.49,2.3,4.41,4.63,8.8,6.84,13.26a2.76,2.76,0,0,1-.16,2.29c-.8,1.29-2.08,2.29-2.8,3.61a3.71,3.71,0,0,0-.08,2.91c.18.39,1.66.24,2.55.27s1.86,0,2.79,0c-.66.8-1.16,1.94-2,2.34-2,.93-6.05.53-2.12,4.35.18.18-.32,1.35-.76,1.83-5,5.6-9.88,11.36-15.21,16.65a96.37,96.37,0,0,1-11.42,9,59.2,59.2,0,0,1-10,6.39c-6.51,3-13.08,6.31-20,7.74a197.61,197.61,0,0,1-31.85,3.89c-6.34.26-11.39-4.54-15.64-8.94-.93-1,.51-5.31,2-7.2s4.88-3.9,6.5-3.31c8.72,3.19,16.7-.58,24.9-1.8,5.52-.82,11.18-1.75,16.34-3.75,6.75-2.61,14-5.25,19.29-9.89,4.5-4,11.42-7.29,11.23-15.15-.1-4.16.14-8.39-.53-12.47-1-6.23-.15-13.06-4.77-18.28-.73-.82-2.53-.72-3.85-1-.16,0-.56.67-.61.64-5-3.13-6.59,2.84-10.11,3.79A46.92,46.92,0,0,0,457,704.38c-6.51,3.9-13.67,4.23-20.82,5.25-2.4.35-4.66,2.31-6.79,3.81-5,3.48-9.44,7.85-14.79,10.48-4.16,2-3.36,4.71-3.35,7.77a41.47,41.47,0,0,1-.2,6c-.58,4-1.78,8-2,12-.3,6.07-3.27,10.29-9.14,11.75-4.65,1.16-9-4-9-8.69,0-5,4.07-11.15-2.52-15.2-.34-.21-.75-1-.64-1.15,4.62-5.46,2.47-13.06,5.93-18.77,1.14-1.88,3.48-3.1,5.42-4.41,1.56-1.05,3.58-1.49,5-2.68,7.61-6.43,7.36-6.15-.87-11.27-3.2-2-9.4-2.46-7.36-9.24,1.66-5.53,5.14-7.45,12.29-4.87,4.42,1.6,8.11,2.75,11.45-1.45.73-.92,2-2.32,1.7-3-1.66-4.36.37-5.89,4.18-7.25,1.53-.55,3-3.14,3.27-5,1.12-6.6,4.92-10.68,10.6-10.59,5,.08,8.14,3.84,8,8.75-.05,2,.62,5.18,1.89,5.75,1.69.76,4.57,0,6.43-1a54,54,0,0,0,8.87-6.47c1.21-1,2.91-3.46,2.5-4.15C463.55,654.75,466.94,655.27,470.33,656.33Z"/><path class="cls-1" d="M596.78,795.55c-.27,4.8-.9,9.19-.68,13.54.55,10.55.55,21.28,2.62,31.56,1.48,7.34,6,14.08,9.13,21.07a20.43,20.43,0,0,1,1.53,2.85c1.53,5.79,2.48,11.79,4.54,17.38,1.72,4.65,4.75,8.8,7.08,13.24a20,20,0,0,1,1,3.54c1.25,4.13,2.73,8.21,3.73,12.4.79,3.31,2.1,7.09,1.23,10.09-2.36,8.14-5.88,15.93-8.71,23.95-1.72,4.88-3,9.92-4.5,14.87-.49,1.58-1.45,3-1.86,4.61s-1.19,4.19-.47,4.82c3.81,3.32,1.84,6.36.52,9.86-.92,2.44-.73,5.3-1,8-.18,1.57.21,3.69-.66,4.59-1.29,1.34-4,3-5.18,2.44-3.21-1.36-8.53,4.74-9.85-2.71-.6-3.41-1.74-6.79-1.85-10.22a143.65,143.65,0,0,1,.52-17.75c.36-3.88,1.81-7.64,2.51-11.5,1.39-7.59,2.51-15.23,4-22.8a4.3,4.3,0,0,1,2.79-2.53c5-1.23,7.63-6.49,4.89-11.08-2.39-4-2.08-8.83-6.3-12.71-3.39-3.12-3.94-10.07-4.41-15.43-.49-5.61-6.16-3-8-6.34-1.38-2.52-3.79-4.45-5.53-6.8s-3.3-5.23-5.13-7.7c-5.36-7.21-1.82-16-4.31-23.74a75.87,75.87,0,0,1-2.6-12.08c-1.12-7.55,2-14.13,4.67-21,2-5,2.16-10.74,3.11-16.15.12-.71-.19-1.93.12-2.09,3.2-1.66,6.7-4.69,9.71-4.29C593.1,787.91,598.27,789.77,596.78,795.55Z"/><path class="cls-1" d="M643.5,1057.16c.68,3.34,1.45,6.67,2,10,.59,3.58-.38,6.36-3.77,8.45-10.31,6.36-20.17,13.56-32.19,16.56-6.24,1.56-12-.73-13.1-5.14s3.57-10.62,9.26-12a14.42,14.42,0,0,0,3.19-.77,2.58,2.58,0,0,0,.86-2c0-.32-1-1.06-1.35-.95-2.93.91-6.84,1.12-8.53,3.15-5.22,6.27-12,9.52-19.35,12a2.12,2.12,0,0,1-1.79-1c-4.1-14.67,6.79-24.17,19-27.07,3.92-.93,7.84-2.44,11.79-2.52s7.94,2.53,11.46,1.78c3.81-.81,8.45,1.28,11.84-3.33,1.48-2,6-2.09,9.23-2.27.78,0,1.74,3,2.62,4.55Z"/></g></g></svg>