<svg xmlns="http://www.w3.org/2000/svg" viewBox="0 0 897.25 872.78"><defs><style>.cls-1{fill:#c5392a;}</style></defs><title>Asset 2</title><g id="Layer_2" data-name="Layer 2"><g id="Bow_2" data-name="Bow 2"><path class="cls-1" d="M392.41,619.44c.26,2.83,1.2,6.56.79,10.12-.87,7.52,1.25,15.19-1.32,22.61a9,9,0,0,0-.26,4.7c.32,1.38-.09,1.83-1,2.68-.63.61-1.09,2.52-.7,2.89,2.38,2.3,1.23,3.2-1.1,4.28a5.4,5.4,0,0,0-2.48,2.78c-2.57,6.9-4.91,14-4.34,21.39.46,5.92,2.53,11.74,4.14,17.54,1.27,4.58,4.17,9.06,4.14,13.57-.06,7.26,3.56,14.4.3,21.85-1.47,3.34-1.41,7.4-1.81,11.15a41.65,41.65,0,0,1-8,20,3.38,3.38,0,0,0-.65,2.23c.63,3.88-2,6.62-3.27,9.82-1.47,3.63-2.9,7.27-4.4,10.89a22.72,22.72,0,0,1-1.5,3c-1.07,1.8-3.28,3.33-.77,5.75.47.45.09,2.17-.34,3.08-2.34,4.88-.79,9.72,0,14.56.87,5.24,1.73,10.49,2.81,15.69a39.25,39.25,0,0,0,2.23,6.17,82.23,82.23,0,0,0,3.78,9.12c1.11,2.05,3.06,3.64,4.46,5.56,1,1.36,2.2,2.86,2.46,4.43.59,3.59-1,7-3,7.38-3.18.68-8.33-1.89-9.83-4.79-1.68-3.24-3.45-6.42-5.2-9.62-2.05-3.74-4.64-7.28-4.36-11.89a2.61,2.61,0,0,0-.32-1.38c-3.49-6-3.9-12.82-5-19.5a57.54,57.54,0,0,1-.67-14.85c.71-8,1.15-16.22,5.42-23.46.16-.27.54-.58.49-.8-1.41-6.33,5.24-8.76,6.64-13.75,1-3.65,2.34-7.22,3.54-10.82s2.44-7.21,3.67-10.81a6.51,6.51,0,0,0,.54-1.31c.47-5.08,1.22-10.17,1.27-15.26.07-7.45-2.25-14.44-4.58-21.47A136.8,136.8,0,0,1,369,692.84c-.65-3.83.22-7.94.63-11.91a42.83,42.83,0,0,1,1.49-7.88c1-3.25,1.75-6.82,3.66-9.49,4.6-6.42,4.72-13.78,4.95-21,.37-11.43.28-22.89-.24-34.32-.36-7.93-2.26-15.77-1.7-23.8.07-1-.79-2-1.15-3-.22-.64-.66-1.61-.39-1.93,2-2.36,1-4.8.52-7.29-.71-3.73-1.3-7.47-1.93-11.22a5.33,5.33,0,0,1-.16-1.88c1-4.66,1-7.43-.09-11-.13-.44-.42-1-.27-1.33,3.12-6.86.35-13.75.13-20.62-.24-7.63-.53-15.26-.73-22.89-.08-3.18.56-6.48-.09-9.53-1.65-7.8-.38-15.58-.48-23.35-.08-6.33.17-12.66.47-19,.12-2.49,1.1-5,1.15-7.44.2-9.84,4.72-19,4.59-28.84,0-.3.39-.76.29-.87-4.62-5.29,1.14-8,3.31-10.87,2.48-3.33,3.62-7.07,4.89-10.69s1.1-7.59,1.57-11.41c0-.32,0-.75.19-.92,5.77-5.19,4.67-13.2,8-19.38.15-.27.08-.72.28-.91,3.53-3.27.87-5.73-.95-8.44s-3.18-5.36-4.79-8c-1.15-1.89-2.38-3.73-3.54-5.61-1.63-2.64-5.74-4.07-3.48-8.61.8-1.61-3.78-4.92-6.34-4.64-4.13.45-8.46-.08-12.18,2.64a7,7,0,0,1-4,1.18c-7.1-.21-12.36,3.76-17.92,7.32-3.32,2.13-6,4.36-7.09,8.39-.35,1.33-1.9,2.35-2.88,3.53-1.52,1.81-3.39,3.44-4.47,5.48-2.86,5.41-7.2,9.06-12.3,12.25-4,2.49-9.06,3.39-11.82,7.75a1.61,1.61,0,0,1-.8.5c-6.36,2.3-12.65,4.87-19.13,6.77a110.74,110.74,0,0,1-14.95,2.81c-2.35.34-4.8-.1-7.17.13-11.27,1.12-22.56-.11-33.85.19-10.21.27-20-3.11-29.51-6.73a115.79,115.79,0,0,0-11.27-3.71c-1.25-.33-2.76.42-4.17.61-2.11.29-3.88,0-4.24-2.61-.06-.47-.06-1.11-.35-1.37-2.31-2-4.27-3.93-.11-6.07.2-.1.11-.88.07-1.34a70.6,70.6,0,0,1,.27-10.08c.27-4.28,1.57-8.09,2.73-12s4.81-6.14,7.43-9,6-4.93,8.73-7.86c2.19-2.36,5.94-3.61,9.23-4.54,10.35-2.91,20.09-7.65,30.92-9.27,4.44-.66,8.78-.71,13.17-1.1a95.59,95.59,0,0,0,11.17-2.16c3-.64,5.82-.14,8.87.5,5.69,1.21,11.6,1.45,17.44,1.84a15.21,15.21,0,0,1,7.43,2.09c4,2.37,8.81,3.32,13.31,4.79,1.92.63,4,.78,5.84,1.6,4,1.84,8,3.65,12.5,4.43,3.06.53,5.8,2.75,8.74,4.09.7.32,2.18.43,2.38.09,2.8-4.7,7.86-5.77,12.29-6.08,5.05-.35,8.81-2.84,12.53-5.24a13,13,0,0,1,6.93-2c.94,0,1.91.3,2.84.19,2.25-.25,3.19-2.13,1.51-3.09-4-2.3-3.53-6.89-5.89-10-2.81-3.71-4.75-8.07-7.31-12a7.13,7.13,0,0,0-3.61-2.72c-6.24-1.88-12.5-3.81-18.87-5.11-3.89-.8-7.1-2.71-10.26-4.71-6.94-4.38-13.47-9.46-20.55-13.59-8.19-4.77-14.69-11.67-22.45-16.82-2.79-1.85-4.93-5.48-9-5.37a1.54,1.54,0,0,1-1.11-.78c-2.54-5.14-7.86-5.73-12.33-7.89a29.51,29.51,0,0,1-9-6.68c-1.29-1.44-1.1-4.47-1.06-6.76s.29-4.53-.76-6.92c-1.7-3.89-.89-5.58,2.46-8.24,3.83-3,7.91-5.31,13-4.94a12.48,12.48,0,0,0,3.31-.4c5.52-1.13,11-2.63,16.57-3.36a45.58,45.58,0,0,1,12.78,0c5.44.85,11.26.13,16.27,3.31a5.35,5.35,0,0,0,2.79.51c5.2-.07,9.41,2.58,13.7,4.94s8.72,5,13.06,7.58a5.39,5.39,0,0,1,1.59,1.06c4.17,5.32,10.85,8.5,13.16,15.45.36,1.08,1.76,1.79,2.56,2.77,3.36,4.14,4.87,9.12,6.37,14.12.35,1.18,1.11,2.23,1.56,3.39.54,1.38,1,2.82,1.39,4.23.28.9.24,2.06.81,2.69,3.7,4.06,3.44,8.88,3.07,13.83s-.44,9.76-.69,14.64a3,3,0,0,1-.54,1.76c-1.25,1.35-2.19,2.78.15,3.68,1.82.7,3.87,1.56,5.19-1.38.69-1.53,2.5-2.59,3.88-3.78,1.64-1.4,3.4-2.66,5-4.05,4.17-3.56,8.48-7,12.33-10.86a7.47,7.47,0,0,0,1.75-5.66c-1.59-9.7,2.6-18.52,3.87-27.76a4.29,4.29,0,0,1,1.1-2c3.32-3.85,4.72-8.49,6.5-13.15,1.33-3.48,2.46-7.62,6-10.42s5.89-6.59,8.94-9.81c5.36-5.65,12.21-9.17,19.14-12.35,4.64-2.13,7.55-.2,9.13,5a9.79,9.79,0,0,0,1,2.15c3.75,6.25,4.75,13.33,5.76,20.31.34,2.32-1.25,4.85-1.43,7.32-.38,5-2.83,8.72-6.17,12.22-2.66,2.8-4.71,6.18-7.34,9a82.18,82.18,0,0,1-7.17,6.25c-1,.81-2.66,1.47-2.81,2.39-.74,4.54-4.73,6.29-7.37,9.17q-4.2,4.58-8.58,9a25.76,25.76,0,0,1-2.72,1.85c-9.29,7.16-18.66,14.22-27.77,21.59-3,2.45-5.47,5.67-8,8.66a3.35,3.35,0,0,0-.66,2.86c2.45,5.27,5.12,10.43,7.7,15.63a10,10,0,0,1,1.12,2.52c.63,3.56,1.23,6.88,3.72,10,2.11,2.62,2.76,6.39,4.2,9.58.42.94,1.34,2.27,2.07,2.29s1.86-1.1,2.44-2c3.74-5.63,7.18-11.47,11.11-17,2.21-3.07,5.27-5.51,7.78-8.39,8.57-9.81,19.66-16,30.93-22,5.47-2.92,10.76-6.17,16.3-8.94,6-3,12.22-5.59,18.32-8.43,1.44-.67,2.72-1.68,4.14-2.4a36,36,0,0,1,5.64-2.51c7.73-2.33,15.51-4.54,23.28-6.76,6.1-1.74,12.28-3.23,18.32-5.16,7.27-2.33,14.44-5,21.64-7.55.4-.14.69-.58,1-.87a5.69,5.69,0,0,0-1-.74c-.42-.2-1.09-.13-1.32-.44-3-3.9-5.3-5.75-9.2-7.5a15.58,15.58,0,0,1-3.33-1.86c-5.68-4.5-10.66-9.78-15.7-14.93-3.8-3.88-5.9-9-7.37-14.35-1-3.62-2.5-7.1-3.46-10.73-.48-1.81,0-3.89-.44-5.71-.89-3.4.8-5,3.49-6.37,4-2,8-2.23,11.87.09,3.29,2,6.82,3.22,9.67,6.49,3.63,4.17,9,6.8,13.6,10.14,1.9,1.38,3.7,2.92,5.58,4.32a7.35,7.35,0,0,0,1.66.7c.13-.57.54-1.28.33-1.69-1.77-3.54-3.18-7.4-5.61-10.43a49.4,49.4,0,0,1-7.07-11.72c-1-2.22-2.89-4-4.33-6-2.71-3.84-5.36-7.73-8.09-11.55a6,6,0,0,0-1.81-1.52c-4.64-2.79-6.64-7.51-8.59-12.14-1.4-3.33.26-5.43,4-5.71.77-.06,1.71.13,2.27-.24,5.52-3.62,9.89-1.08,14.58,2.07A87.47,87.47,0,0,1,573.21,166a14.85,14.85,0,0,1,4,7.23,139.9,139.9,0,0,0,6,18.53c.79,2.13,2.61,3.85,3.85,5.83a11,11,0,0,1,1.28,3c1,3.81,1.45,7.83,4.69,10.69a3.64,3.64,0,0,1,.79,2.19c.46,4.19,1.55,8.07,4.55,11.27a4.55,4.55,0,0,1,1.16,3c-.2,4.41,2.31,7.65,4.5,11,.25.38,1.77.49,1.82.36.6-1.43,3.39-2,1.79-4.32a47.36,47.36,0,0,0-3.42-5.13c-3.34-3.71-2.68-9.23-6.06-12.9-.44-.48-.3-1.53-.34-2.32-.38-6.49-.95-13-1-19.47a25.29,25.29,0,0,1,1.49-9.26c3.08-7.91,6.43-15.73,10.09-23.38a114.27,114.27,0,0,1,7.83-13.1,5.43,5.43,0,0,0,.6-5.95,122.71,122.71,0,0,1-6.19-17.86c-1.08-4.29-.62-8.84,2.87-12.39a8.78,8.78,0,0,0,2.13-2.57c1.15-2.94,3.23-3.74,6.11-3.14.46.1,1.05.36,1.38.18,5.84-3.2,11.68.26,17.51,0,2-.08,3.36-.4,3.69-2.67.58-3.91,3.53-7.86-.3-11.65.45-.31.88-.66,1.36-.93,1-.57,2.68-.91,2.91-1.69,1.29-4.51,4.21-7.51,7.89-10.19a17.28,17.28,0,0,0,4.11-5.16c1.77-2.92,4-5.73,5.43-8.58,2.55-5.11,6.74-9.61,6.4-16.31-.2-3.85,1.93-8.2,4.76-11.36,2.4-2.68,5.45-4.75,8.13-7.19,1.84-1.69,3.42-3.67,5.32-5.29a14.22,14.22,0,0,1,4-2.13c5-2,10.07-3.89,15.11-5.81a23.39,23.39,0,0,1,3.16-1.09c3.67-.82,3.86-1,3.31-4.41-.71-4.37-.63-4.06,3.34-5.1s8-2.82,12-4.28c.14-.05.26-.24.4-.25,6.93-.57,13.38-4.18,20.55-3.25a15.94,15.94,0,0,0,4.29.13c5-.73,8.81,1.22,12.23,4.65,4,4.05,8.14,8.06,12.42,11.85,1.63,1.44,3.82,2.24,5.77,3.31.82.45,2.12.63,2.43,1.29,1.42,3,4.47,3.53,7,4.61A164,164,0,0,1,815,35.94c.68.4,1.65.66,2,1.27,2.18,4,4.22,8.07,6.28,12.13.28.55.28,1.6.63,1.72,2.88.92,2.67,3.93,4.11,5.79,1.57,2,3.26,3.93,4.89,5.9.18.21.45.6.37.74-2.25,4.21,1.79,3.46,3.5,4.16,1.87.77,4,.81,6,1.41a11,11,0,0,1,3,1.77,93.68,93.68,0,0,1,8.27,6.22c2.88,2.62,6,5.29,7.95,8.56,3.17,5.21,5.55,10.91,8.17,16.44,1.12,2.36,2,4.85,3.06,7.24.24.53.84,1.26,1.29,1.27,4.17.13,6.18,3.63,9.1,5.7.52.37,1,1,1.54,1.13,7.46,2.15,6.77,9.33,9.1,14.65.06.13,0,.32,0,.48.48,4.24,3,7.9,1.82,12.8-1,4.09.79,8.79,1.18,13.23a12.89,12.89,0,0,1-.62,3.55c-.38,1.85-.73,3.71-1.21,5.53a58.93,58.93,0,0,1-2.24,7.6c-.68,1.66-2.81,2.9-.63,4.93.22.2-.12,1.14-.37,1.66-.34.7-1.25,1.33-1.22,2,.23,6.83-4.59,11.12-8,16.15-.53.8-1.42,1.6-1.47,2.44-.3,5.46-4.4,9-6.7,13.45a29.25,29.25,0,0,1-6.65,7.86c-2.35,2.1-2.79,2.51-.13,4.17,1.88,1.18,1.74,1.3.44,3.17-2.52,3.62-6.42,6.91-5.3,12.22a1.75,1.75,0,0,1-.41,1.29c-5.54,6.39-8.42,14.42-13.17,21.3a3.91,3.91,0,0,0-.3.37c-3.74,7.24-6.1,9.75-12.31,14-4.11,2.84-7.94,6.07-12,9-2.59,1.86-5.18,3.94-8.09,5.08a49.37,49.37,0,0,1-10.46,2.32c-3.43.52-6.92.68-10.38,1a5.71,5.71,0,0,1-1.88-.12c-5-1.32-4.67-1-7.87,2.71s-7.6,6.26-10.72,10-8,4.19-10.63,8a.83.83,0,0,1-.36.31c-4.36,1.6-8.71,3.23-13.09,4.75-2.38.83-4.79,1.89-7.25,2.1-4.11.36-8.27.16-12.41.14-6.21,0-12.42,0-18.63-.16a37.32,37.32,0,0,1-5.14-.72c-.62-.1-1.39-.64-1.79-.42-6.12,3.21-10.63-2.18-15.89-3.24-5.74-1.15-11.2-4.2-16.5-7-4.31-2.24-8.14-5.39-12.3-7.94a72.28,72.28,0,0,1-12.5-9.75c-.4-.39-1.34-.23-2-.33.07.59-.09,1.48.24,1.74,1.85,1.44,1.21,3.33,1.4,5.21.26,2.61,1.54,5.11,1.93,7.72.81,5.47,1.31,11,1.95,16.49.5,4.25,1.14,8.48,1.45,12.74.11,1.47-.53,3-.91,4.49-.61,2.44-1.59,4.82-1.89,7.29a68.29,68.29,0,0,1-9,25.77c-1.78,3.12-7.23,3.44-8.87.22s-4.13-6.14-6-9.25c-1.67-2.74-1.79-6.24-4.39-8.47a6.9,6.9,0,0,1-1.77-3.36c-2.68-10-6-19.79-6.69-30.21a13.15,13.15,0,0,0-.88-4.69c-.84-1.78-.31-3,.15-4.76.65-2.45-.11-5.28-.36-7.93,0-.23-.77-.62-1.07-.53s-.91.62-.91,1c-.1,4.35-3.47,6.36-6,9.14a33.69,33.69,0,0,0-5.4,8.95c-1.74,3.85-6.11,6.17-9.3,3.77-2.48-1.87-3-.27-3.91,1.11s-1.54,3.24-2.71,4.47c-2.21,2.33-8.09,2.92-10.83,1.23a3.16,3.16,0,0,1-1.37-2.24c0-4.6.23-9.21.38-13.81a1.51,1.51,0,0,1,.12-.46c.94-2.5-1.52-5.14.86-7.86,1.9-2.16,2.77-5.28,3.89-8.07.94-2.34,1.43-4.85,2.36-7.19a51.3,51.3,0,0,1,3.28-6.85c1.24-2.14,2.5-4,.66-6.52-1-1.34-.45-2.63,1.5-3.19a3.14,3.14,0,0,0,1.9-2.16c.31-5.09.53-10.2.48-15.3,0-3.14-.74-3.72-3.84-2.81-6.2,1.81-12.28,4.06-18.46,5.94-3.76,1.14-7.67,1.78-11.45,2.88-4.36,1.27-8.66,2.74-12.94,4.26-2.55.91-4.92,2.36-7.51,3.11C525.73,280,518.22,281.52,511,284a193.79,193.79,0,0,0-18.48,7.75c-6.75,3.08-13.61,6.06-20,9.84-3.2,1.9-6,4.36-9.69,5.53a43.26,43.26,0,0,0-5.47,2.61,11.06,11.06,0,0,0-2.59,1.24c-7.31,6.48-16.42,10.88-22.27,19-2.21,3.06-4,6.43-6,9.67-.16.26-.09.72-.29.9-5.26,4.48-7.3,11-10.51,16.75-2.45,4.39-4.33,9.11-6.41,13.71a29.13,29.13,0,0,0-2.4,6.18c-.3,1.52,1,3.43.47,4.79s-2.39,2.19-3.46,3.43c-.45.52-.27,1.54-.49,2.3-1.24,4.39-2.32,8.85-3.84,13.15s-4,8.36-5.15,12.75c-1.12,4.2-.94,8.74-1.65,13.07a38.56,38.56,0,0,1-2.17,6.72c-.37,1-1.3,2-1.39,3q-1.53,16.59-2.84,33.19c-.37,4.62-.71,9.24-.84,13.87a42.11,42.11,0,0,0,.53,7.58c.27,1.75,2.59,3.54-.44,5-.13.06-.16.72,0,.89,2.62,2.87,0,6.58,1.56,9.62a2,2,0,0,1,.1,1.41c-2.44,7.6-.87,15.25.5,22.65,1.42,7.65-.92,15.43,1.55,23,.48,1.45-.68,3.37-.63,5.06.14,4.45,0,9,1,13.3a42.91,42.91,0,0,1,.78,11.73c-.18,3.37,1.28,6.74-.59,10.17-.56,1,.46,3.07,1.07,4.52.69,1.63,2.1,2.06,3.48.83,1.85-1.65,3.94-1.89,6.32-2.3,3.51-.6,6.78-2.55,10.21-3.77s7.17-2.35,10.75-3.53L438,584.17c1.36-.44,2.74-1.24,4.09-1.21,4.16.09,7.09-2.73,10.61-4.09,1.57-.61,1.54-1.73.77-3.1-3.4-6-5.88-12.47-11.55-17.24-3.49-2.93-5.4-7.76-8-11.77-.58-.91-.8-2-1.37-3-2.6-4.27-.81-8.53,3.85-10.1,4.42-1.49,8.5-.67,12.55.89,3.1,1.19,6,2.79,9.1,4.06,6.6,2.73,13.33,4.4,20.65,4.05,3.06-.15,2.65-1.21,2.29-3-.83-4-1.51-8.11-2.71-12-.94-3.06.49-5.23,2.36-6.75a6.06,6.06,0,0,1,7-.8c1.86,1.08,3.62,2.32,5.42,3.51.39.26.71.76,1.12.84,6.76,1.3,11.29,6.63,17.2,9.48,3.76,1.81,4,1.63,6.25-1.75a38.51,38.51,0,0,0,4.39-9.42c2.43-7.21,7.67-8.09,13.67-3.28,5.39,4.33,9.84,9.94,16.63,12.48,2.91,1.09,2.94,1.08,3.66-2,1.08-4.55,3.27-8.77,8.08-9.93a13.63,13.63,0,0,1,12.92,3.16,55,55,0,0,0,8.89,6.33c2.85,1.69,4.21,1.09,5.7-1.81.73-1.41,1.27-2.92,2.09-4.27a6,6,0,0,1,7.29-2.87c5,1.52,10.17,2.8,15,4.76,2.69,1.08,4.89,3.36,7.35,5.05,1,.7,2.31,2,3.15,1.77,5.73-1.47,7.28,4.2,10.66,6.42,2.63,1.72,6.48,3.88,6.38,8.33,0,.32.56.86.93.94,4.23.94,2,2.32.36,3.87s-3.49,3-4.47,4.87c-1.76,3.44-4.89,5.31-7.61,7.65a6.33,6.33,0,0,1-3.57,1.1c-4.12.25-8.24.27-12.36.46a24,24,0,0,0-3.21.61,16.06,16.06,0,0,1-3.9.65c-6.05-.43-7.73,2.32-6.15,8.11,1.31,4.78,1.45,9.94,1.63,14.95.09,2.42-3.94,5.48-7.06,5.56-2.13.06-4.29-.68-6.42-1.14-.61-.13-1.2-.78-1.74-.71-4.84.61-9-2.25-13.6-2.62a13.44,13.44,0,0,0-3.55.68,10,10,0,0,0,1.17,2.74c1.93,2.27,3.74,4.28.58,7.11-1,.93-1.19,2.79-1.89,4.16-2.37,4.65-4.5,5.85-9.35,5.23-4.68-.61-9.36-1.25-14-2a52.31,52.31,0,0,1-5.39-1.46c0,1.85.11,3.72,0,5.56a6.61,6.61,0,0,1-8.31,5.63c-5.13-1.66-10.28-3.27-15.39-5-2.22-.74-4-1.55-3.78,2.27.15,2.7-2.68,4.49-6.83,4.33a30,30,0,0,1-14.46-3.77c-4.6-2.64-9.47-6-15.35-5.92a3.16,3.16,0,0,1-1.79-.53c-4.38-3.22-8.71-6.51-13.08-9.75a8.93,8.93,0,0,0-2.08-1.17c-3.8-1.47-7.53-3.54-11.47-4.1-3.12-.45-6.57.74-9.76,1.63-5.48,1.53-10.89,3.3-16.27,5.13-4.51,1.53-9,3.08-13.37,5-5.63,2.51-11.29,4.26-17.48,2.79-2-.46-2.19.5-2.16,2C392.44,614.12,392.41,616.36,392.41,619.44ZM805,240.62a22.57,22.57,0,0,0-1-2.31c-2.59-4.49-8.47-7.47-13.56-6.51a112.15,112.15,0,0,0-14.26,3.48c-8.29,2.74-16.47,5.55-25.35,3-2.19-.63-4.4-1.17-6.59-1.79-4.56-1.29-9.11-2.63-13.68-3.9-5.65-1.58-11.27-3.26-17-4.63-5.18-1.24-10.5-1.94-15.68-3.2-4.16-1-8.19-2.53-12.29-3.77-7.12-2.15-13.67-5.1-17.91-11.71a7.25,7.25,0,0,0-3-2.11c-.19-.09-1.52,1.21-1.4,1.59,1.1,3.59,2.4,7.12,3.63,10.67s2.31,7.2,3.68,10.73a46.16,46.16,0,0,0,9.19,14.75c1.37,1.48,2.71,2.77,4.91,1.33.42-.28,1.16-.06,1.76-.07-.15.68-.09,1.51-.47,2-1.41,1.82-.48,3,.57,4.65,1.87,2.89,4.73,6.11,4.62,9.1-.19,5.2,5.41,5.43,6.25,9.25a16.18,16.18,0,0,1,1.69-.27,3.33,3.33,0,0,1,1.74.25c1.15.73,2.07,1.95,3.3,2.4,3.08,1.14,6.57,1.46,9.37,3.05,3.56,2,7.15,1.7,10.79,1.51,4.08-.21,8.17-1.38,12.19-1.11,6,.4,11.68-.88,17.43-1.68,2.29-.32,4.25-2.91,6.37-4.47-2-3.67,1.41-2.77,2.9-3.47,1.12-.53,2.92-.72,3.3-1.56,1.73-3.86,5.61-5.43,8.24-8.29,3.25-3.54,6.12-7.18,11.47-8.41a21.42,21.42,0,0,1,8.32-.14,1.91,1.91,0,0,1,1.23,1.13c.91,2.92,1.65,5.9,2.59,8.81.26.79,1.06,2,1.51,2a3.53,3.53,0,0,0,2.62-1.45,64.31,64.31,0,0,0,3.14-9,8.52,8.52,0,0,0-.07-4.7C804.92,244,802.35,242.73,805,240.62ZM819.69,70.93c-.73-1.33-1.45-4-3.17-5.52-4.27-3.85-6-9.1-8.33-14-1-2.15-2-3.8-4-5-4.35-2.59-8.65-5.27-13-7.87a13.53,13.53,0,0,0-3-1.43c-9.36-2.79-15.91-9.41-22-16.48-4.14-4.84-8.22-8.84-15.25-7.17a30.16,30.16,0,0,1-3.33.09,43.45,43.45,0,0,0-7.44,1.11c-3.33,1-6.5,2.54-9.77,3.75-2.17.81-3.15,1.86-2,4.31a78.81,78.81,0,0,1,4.22,10c1.42,4.36,2.2,8.93,3.69,13.26a11.11,11.11,0,0,0,3.73,5.09,26.84,26.84,0,0,0,8,4.07c5.64,1.65,9.72,4.71,12.22,10.13,1.49,3.25,4.4,6,5.2,9.37a12.68,12.68,0,0,0,7.54,9.15,19.7,19.7,0,0,1,5.16,3.26,102.51,102.51,0,0,1,8,8.71c2.5,3,4.82,6.23,7,9.49s3.85,6.63,6,9.77c2.45,3.52,5.19,6.83,7.89,10.18a3,3,0,0,0,1.89.88c.23,0,.69-.95.81-1.52s-.13-1.29,0-1.9c1.2-6.83.19-13.88,2.62-20.64a135.08,135.08,0,0,0,4.06-15.61C817.66,81.71,818.51,76.88,819.69,70.93ZM723.33,49.71a29,29,0,0,0-5.59-17.11c-1.64-2.21-3.37-3.25-6.1-2-3.76,1.67-7.46,3.76-11.41,4.69-6.14,1.44-8.81,6.39-12.3,10.61-.49.59-1.19,1.56-1,2.06,1,2.74-.81,4.38-2.43,5.65-2.45,1.91-1.33,5.77-4.34,7.22-.13.06.21.89.12,1.31-.59,2.73-.56,5.88-2,8.08A166.78,166.78,0,0,1,665,88.36a37,37,0,0,0-6.77,12.25c-.89,2.56-1.25,5.91-.33,8.33a29,29,0,0,0,6.16,9.28,13.82,13.82,0,0,1,4,8.95c.27,4.2,0,8.43.16,12.65a8.37,8.37,0,0,0,.91,2.48,10.17,10.17,0,0,0,2-1.83c1.87-2.92,3.58-5.94,5.4-8.89,3.35-5.43,5.33-11.74,10.39-16.08.56-.48.73-1.4,1.24-2,3.14-3.5,5.89-7.56,9.6-10.3,8.18-6,17.71-7.48,27.65-5.93a10.49,10.49,0,0,1,5.48,2.29c1.19,1.15,2.35,2.15,3.53,1.34.89-.61,1.27-2.38,1.36-3.67.74-10.65-1.54-20.81-5.25-30.72-1.36-3.64-4.45-5.63-7.29-7.91A3.41,3.41,0,0,1,722,56.1,59.82,59.82,0,0,1,723.33,49.71Zm62,216.82-.6-2.18c-.67.25-1.55.31-2,.78-3,3.44-5.82,7-8.74,10.47-2.31,2.76-4.36,5.82-8.72,5.59-1.07-.06-2.21,1.09-3.32,1.67-2.05,1.07-4,2.63-6.18,3.12-8.73,1.94-17.66,2.67-26.47,4.26A41.61,41.61,0,0,1,707.45,288c-8.33-3.14-16.55-6.69-23.12-12.81-2.5-2.33-5.65-2.7-8.14-4.56-4.33-3.23-8.33-7-13-9.7s-9-7-15.27-6.66c-.22,0-.46-.85-.74-1.27a7,7,0,0,0-1.56-2.16c-1.84-1.19-3.81-2.18-5.76-3.2-1.45-.76-2.12,0-2.23,1.37a6,6,0,0,0,.25,2.36c.95,2.84,1.87,5.69,3,8.45,1.25,3,2.67,5.93,4.16,8.82a94.65,94.65,0,0,0,5.48,9.81c2.46,3.62,4.84,7.57,8.17,10.24a227.06,227.06,0,0,0,20.59,14.42c6.65,4.23,14.45,6,21.82,8.47,4.93,1.63,10.7.85,16.1.92,4,.05,8.32-1.36,11.85-.17,6.15,2.07,11.83-1.78,17.71-.17.35.1.87-.35,1.28-.58,6-3.34,13.65-3.61,17.88-10.15.69-1.07,2.56-1.3,3.61-2.22,1.64-1.43,3.51-2.89,4.46-4.75,2.16-4.24,3.9-8.71,5.66-13.14C781.65,276.44,783.42,271.53,785.3,266.54ZM714.62,108.85c-1.63.52-4.59.92-7,2.33C703,114,700.16,118.78,697,123c-5.07,6.83-9.58,14.1-14,21.37-1.89,3.08-3.93,6.49-4.34,9.94-.54,4.56-2.43,8.69-3,13.18-.47,3.54-1.67,7-2,10.55-.26,2.92.63,5.93.44,8.86-.25,3.81-.36,7.39,2.05,10.68,3.68,5,7.25,10.14,13.74,11.86,3.06.81,6.18,1.4,9.26,2.15,6.6,1.61,13.18,3.29,19.8,4.83a2.36,2.36,0,0,0,2-.83c.24-.33-.23-1.33-.59-1.89-1.4-2.22-3.05-4.29-4.31-6.58-2-3.73-3.55-7.71-8.22-9.26a6,6,0,0,1-3.55-3.56c-1-5.18-4.09-9.72-3.16-15.64a120.63,120.63,0,0,1,4.8-19.06c1.46-4.47,7.06-7.6,4.58-13.4-.09-.22.89-.78,1.17-1.3a57.64,57.64,0,0,0,4-7.82,59.83,59.83,0,0,0,2.36-9.74c.66-3.77,3.1-7.32,1.5-11.41-.14-.37.11-.91.24-1.36C720.76,110.53,719.65,108.88,714.62,108.85Zm46.81,117.51c5.67,1,10.4-2.87,15.79-4,.36-.07.81-1.55.6-2.16a16,16,0,0,0-1.93-3.24c-2.25-3.45-2.26-3.71-1.94-8.27a8.91,8.91,0,0,0-.69-3.12c-1-3.11-2.27-6.14-3-9.31s-.8-6.09-1.65-9.18c-1.85-6.72-2.84-13.65-6.39-19.83a10.06,10.06,0,0,1-1-4.16c-.59-7.76-1.07-15.53-1.59-23.3a4.14,4.14,0,0,1,0-.95c.76-4.57,2.31-9.16-.53-13.59-.15-.23-.22-.8-.11-.87,2.4-1.54.79-3.76,1.12-5.63a57.25,57.25,0,0,0-4.66-35.64c-2.11-4.45-4.55-8.76-6.95-13.06-.27-.48-1.28-.54-2-.8a9.56,9.56,0,0,0,0,1.77c.67,3.89,1.6,7.75,2,11.66.34,3.26,0,6.6.11,9.89.17,4.91,1.09,9.89.51,14.69-.36,2.93.56,4.76,1.7,7,1.24,2.47,3.1,5.34,2.75,7.76-1,6.81-1.58,13.87-5.11,20a21.54,21.54,0,0,0-3.12,8.88c-.31,3.45-.7,6.9-1.12,10.34-.88,7.23.49,14.54-1.63,21.79-1.36,4.65-1,9.8-1.56,14.71-.45,3.88.34,6,3.7,7.89,2.34,1.29,2.79,3.14,2.61,5.58-.08,1.05.58,2.15.89,3.24a15.09,15.09,0,0,1,.76,3c.46,7.2,1.19,8,8.31,8.63C758.63,226.28,759.91,226.3,761.43,226.37ZM824.65,123c-.5,3-.81,5.68-1.44,8.28-.18.74-1.16,1.44-1.94,1.87-2.56,1.4-5.13,1.59-7.65-.26-.42-.31-1.14-.21-1.72-.3a10.44,10.44,0,0,0,.36,2.15c.14.38.68.64,1.07.89,4.3,2.83,6.43,7.53,9.72,11.16,3.68,4.07,8.8,6.77,13.07,10.38.92.77,2.94.11,4.1.75,1.55.85,3.75,2.21,3.9,3.56.32,2.82,1,2.36,2.82,1.3,2.4-1.38,4.9-3,7.54-3.47,4-.73,5-1.13,5.17-4.93a44.92,44.92,0,0,1,2.87-14.33c1.19-3,1.18-6.5,1.6-9.8a2.1,2.1,0,0,0-.74-1.67c-1.79-1.19-2.88-2.31-.83-4.27.23-.22-.22-1.68-.73-2.06-3.24-2.45-2.8-5.84-3.19-9.34a28.65,28.65,0,0,0-3.71-11.18c-1.25-2.1-3.75-3.15-4.1-6.36-.46-4.25-4.39-6.67-6.91-9.83-2.38-3-5.46-3.52-9-3.38-1.8.07-2.72.83-3.69,2.4-3,4.91-2,10.74-4,16-1.48,3.94-3.37,8.17-2.39,12.76.1.49-.67,1.11-.74,1.71a20,20,0,0,0-.21,4.12A30.58,30.58,0,0,0,824.65,123Zm39.43,55.44c0-3.11-2.18-7.12-4.19-6.72-4.11.82-9-.5-12,4.08-1.23,1.87-3.06,3.87-5,4.56a7.48,7.48,0,0,0-4.38,3.14c-.61.94-1.89,1.44-2.86,2.16-4,3-8.3,5.68-11.93,9.08-1.24,1.16-2.26,2.6-3.7,3.83-4.05,3.48-6.4,8.69-11.26,11.46-.36,3.11-2.38,5.09-4.6,7-1.75,1.5-1.8,2.55.55,3.85,5.12,2.84,9.37,6.47,10.84,12.68.92,3.9,4,4.57,6.61,1.66a5.57,5.57,0,0,1,4.47-2.13,8.93,8.93,0,0,0,4.31-1.67c1.58-1,2.73-2.83,4.39-3.61a18.07,18.07,0,0,0,7.94-7.13c1.39-2.27,2.52-5.14,4.59-6.46,3.56-2.27,5.67-5.37,7.54-8.87,2.09-3.88,4.79-7.58,6.08-11.71C863,188.82,863.25,183.57,864.08,178.49ZM634,118.16l-6.83.48c-.32,0-.77-.07-.93.11-.56.61-1.58,1.63-1.42,1.93.67,1.22,2.26,2.14,2.44,3.33.12.78-2.46,1.94-2.36,2.75A38.69,38.69,0,0,0,627,134.9c.56,1.61,2.29,3,2.37,4.55.17,3,1.9,4.53,4.12,5.91a38.12,38.12,0,0,0,4,2.55c2,.89,2.74,3,5.24,3.68,2.71.73-1.3,3.27,0,5.12a4.1,4.1,0,0,1,.47,1.84c.17,1.68.09,3.41.42,5.06.84,4.28-.44,8.4-.62,12.54-.42,9.42-3.56,18.07-6,26.9-1,3.82-1.22,7.92-3.41,11.59-1.46,2.44-1.47,5.78-2,8.74-.37,2.28-.09,4.51,1.88,6.11a43.73,43.73,0,0,0,4.94,3.76c6.8,4.06,13.67,8,20.55,12a10.7,10.7,0,0,0,2.52.71c-.13-1,.1-2.63-.46-3-3.35-2.1-3.06-5.58-3.79-8.73-1-4.15-2-8.28-3.17-12.37-.48-1.66-1.47-3.16-2.08-4.79a23.87,23.87,0,0,1-1.14-4.07c-.4-2.17-.62-4.38-1-6.56-.6-3.57-1.24-7.13-1.88-10.68-.24-1.32-1-2.7-.75-3.94,1.4-8.59,3.09-17.14,4.43-25.74.29-1.86-.77-3.9-.69-5.84.09-2.09-2.19-5.25,2.17-5.93.43-.07.78-1.22,1-1.92a35.94,35.94,0,0,1,1.4-5,14.74,14.74,0,0,0,.85-9.67,32.5,32.5,0,0,1-.53-7.38c.16-4.9-2-7.13-6.69-6.11-2,.45-2.9.08-3.54-1.84-.35-1-1.15-2.52-2-2.71C640.13,118.9,636.51,118.53,634,118.16Zm141.69,43.58a9.73,9.73,0,0,0-.18,2.93c.6,2.1,1.5,4.11,2.15,6.19,2.21,7.09,2.43,14.68,5.71,21.53,1.13,2.35,1.1,5.23,1.84,7.8,1,3.64,2.2,7.26,3.5,10.82.57,1.54,1.86,2.35,3.36.91,3.21-3.09,6.5-6.11,9.47-9.41,5.46-6.08,10.18-12.85,17.2-17.42,1.22-.8,3.52-1.47,2.5-4-.1-.25.29-.9.61-1.08,2.58-1.45,5.24-2.76,7.78-4.27,2.29-1.36,4.5-2.86,6.64-4.43.49-.36.56-1.29.83-2-.7-.27-1.44-.85-2.1-.77-5.16.65-10.58.67-15.38,2.39s-8.9,1.36-13.49.1c-3.75-1-7.33-2.44-11.38-2.84-4.74-.47-9.77-1.35-14-4.17A40.28,40.28,0,0,0,775.67,161.74Zm37.24-1,2.44-.8a11.58,11.58,0,0,0-1-2.33q-4-5.54-8.16-11c-.45-.58-1.41-.74-1.95-1.29-2.45-2.52-5-5-7.17-7.7-1.06-1.3-1.3-3.23-2.27-4.63-2.42-3.49-5.48-6.61-7.49-10.31-3-5.59-5.3-11.6-11.34-14.9-.47-.26-.36-1.46-.64-2.19a8,8,0,0,0-.89-1.39c-.32.34-.77.62-.94,1-.53,1.28-1.36,2.61-1.35,3.92,0,3.06,1.18,6.27.53,9.12-.69,3,3,6.26-.55,9a2.2,2.2,0,0,0,.64,1.62c1.81,1,1.77,2.48,2,4.31.4,2.72,1.8,5.3,2.78,7.94.85,2.29,3.27,1.5,4.65,2.4s-2,3.45.66,5.13c3.24,2.08,5.27,5.62,9.8,6.25,5.25.74,10.34,2.69,15.48,4.16C809.68,159.55,811.15,160.14,812.91,160.75Zm-71.67-34.46c.32-4.94-2.58-7.87-6-10.42-.93-.69-3.1-1.26-2.68.82.87,4.26-1.84,7.78-1.75,11.86a20.89,20.89,0,0,1-1.61,7.38c-2.24,6.08-4.8,12-7.09,18.08-2.35,6.21-5.86,12-6.58,18.8-.69,6.46-1.43,12.91,3.79,18.12q3.2,3.19,6.37,6.4c1.78,1.81,2.23,1.71,3-.85a12.65,12.65,0,0,0,.39-2.35c.47-5.35,1-10.7,1.33-16.06.11-1.81-.41-3.64-.46-5.47-.06-2.22,1.49-4.63-.93-6.51a6.2,6.2,0,0,0,.89-1.1,10.22,10.22,0,0,0,1.05-2.6c.79-4.48,1.46-9,2.23-13.45a14.33,14.33,0,0,1,.9-3.2c1.61-3.76,3.45-7.42,4.91-11.24A84.78,84.78,0,0,0,741.24,126.29ZM632.37,166.07c-.13-1.8.1-3.06-.36-4-1-2.08-2.38-4-3.6-6-1.11,1.23-2.2,2.49-3.36,3.67-.31.32-1,.32-1.25.67a33.59,33.59,0,0,0-3.62,5.31c-1.64,3.48-2.83,7.17-4.43,10.68-1.3,2.85-3.09,5.47-4.35,8.34-1.07,2.45-2.32,5.08-2.36,7.65a130.16,130.16,0,0,0,1.09,14.41c.27,2.83.23,5.81,1.17,8.42a89.5,89.5,0,0,0,5.42,11.15c.35.67,1.35,1,2.05,1.47a6,6,0,0,0,.53-2.19c-.47-2.83-.91-5.58,1-8.15.41-.54.18-1.55.26-2.35.42-4.08.66-8.17,2.73-11.93A25.21,25.21,0,0,0,625.6,197c1.71-7.09,3.28-14.2,4.85-21.32C631.2,172.31,631.82,168.87,632.37,166.07ZM804.51,285.29c3.1-1.08,6.55-1.65,9.27-3.38,5-3.2,8.19-9.17,14.77-10.27.39-.06.74-.57,1-.92,5.87-6.8,10.23-14.66,15.28-22a7.76,7.76,0,0,0,1.06-4.55c0-.41-2.32-.71-3.57-1.06a2.12,2.12,0,0,1-.45-.17c-3.83-2.11-7.21-1-10.72,1.1-2.81,1.68-5.89,3.41-9,3.9-3.4.53-4.19,2.18-4.43,5a65.73,65.73,0,0,1-1.06,8.81c-1.4,6.17-7,9.73-9.77,15.11-.24.46-1.1.58-1.65.9a11.32,11.32,0,0,0-2.78,1.72,39,39,0,0,0-2.95,4.06Zm71.81-109.16-.81.3a8,8,0,0,0,.13,1.9c.32,1,.81,2,1.22,3a27.78,27.78,0,0,0,1.81-2.5c.47-.82.72-1.77,1.13-2.63.9-1.87,2.29-3.77-.65-5.18a4.47,4.47,0,0,1,.59-1.55c1-1.34,2.84-2.61,2.84-3.91,0-4,2.32-7.59,1.83-11.85-.25-2.12-1.3-4.4-1-6.16.88-4.5-1-8.12-2.41-12a13.25,13.25,0,0,0-1.79-3.83c-1.14-1.41-2.71-.9-3,.92-.92,5.8-1.62,11.64-2.66,17.42-.41,2.26-1.66,4.35-2.2,6.6-.46,1.92-1.36,4.75-.47,5.79,2.18,2.53,2.65,5.43,3.49,8.33C875,172.63,875.68,174.37,876.31,176.13Zm-596,33.29.08.46c2.6-.45,5.9-.08,7.64-1.55a12.62,12.62,0,0,1,8.5-3.45,4.76,4.76,0,0,0,1.56-.62c-.58-.41-1.19-1.21-1.72-1.15a49.64,49.64,0,0,0-7.89,1.26c-7.1,1.95-15,1.56-21,6.68-.23.2-.66.18-.86.39-.59.64-1.69,1.79-1.57,1.94a43.47,43.47,0,0,0,3.49,3.67,12,12,0,0,0,1.65-2.57c1.54-4.7,1.5-4.73,6.35-5C277.81,209.36,279.08,209.42,280.35,209.42Zm39,39.81-2.43,1.5a20.24,20.24,0,0,0,2.34,2.09c4.57,3,9.64,5.41,13.59,9,2.13,2,4.68,2.36,6.74,3.95a1.62,1.62,0,0,0,1.51-.34,1.91,1.91,0,0,0-.29-1.7,8.71,8.71,0,0,0-2.09-1.08c-3.79-2-7.4-3.92-9.66-8C327.31,251.44,323.9,249.71,319.36,249.23ZM637.9,315l.6-.12c-.51-2.46-.91-5-1.58-7.37-.2-.71-1.14-1.22-1.74-1.82-.28.67-.86,1.37-.8,2a79.09,79.09,0,0,0,1.14,8.43c.78,3.82,1.79,7.59,2.76,11.36a24.15,24.15,0,0,0,1.11,2.84,32.6,32.6,0,0,0,.82-3.32,5.87,5.87,0,0,0-.28-1.87Q638.91,320.12,637.9,315ZM629.39,551.6c-.18-.49-.2-.86-.39-1a44.83,44.83,0,0,0-4.42-3.46c-1.69-1.06-3.67-2.67-3.91,1.39-.06,1-1.92,1.88-2.77,3a9.83,9.83,0,0,0-1,2.41c.81.31,1.68,1,2.42.86,2.8-.45,5.58-1.11,8.33-1.82C628.28,552.73,628.83,552,629.39,551.6Zm-18.06-298c-1,.85-2,1.41-2.5,2.29-.89,1.66.27,5.72,1.83,7,1.35,1.11,2.76,2.16,4.19,3.16a14,14,0,0,0,1.95,1,13,13,0,0,0,.28-2.6,3.49,3.49,0,0,0-.83-1.69c-1.86-2.35-4.22-4.42-4-7.84C612.22,254.59,611.75,254.23,611.33,253.63ZM271.84,322.44v-.25c3.5-.17,7-.27,10.51-.57.74-.06,1.43-.83,2.14-1.28a6.14,6.14,0,0,0-2-1c-3.59-.29-7.23.38-10.72-1.52-.92-.5-2.92,1-4.42,1.57,1.33,1,2.66,2,4,3C271.47,322.53,271.68,322.45,271.84,322.44ZM300,236.66l-1.41.07a13.55,13.55,0,0,0,1.38,1.8c1.91,1.8,3.86,3.55,5.83,5.29.2.17.75.29.82.2a2.17,2.17,0,0,0,.51-1.16C307.23,238.18,306.23,237.24,300,236.66Zm66.58,30.26-.31-.08a3.87,3.87,0,0,0,.08-1.41,19.92,19.92,0,0,0-1.09-2.33,13.29,13.29,0,0,0-1.53,2.12,48.45,48.45,0,0,1-1.95,4.72c-.73,1.22-1.48,2.16.2,3.05,1.44.76,2.78.89,3.32-1.1C365.79,270.25,366.18,268.58,366.6,266.92ZM446.82,231c.36-.22.54-.27.62-.39,2.36-3.71,4.77-7.39,7-11.17.26-.43-.43-1.42-.68-2.15-.61.34-1.5.53-1.78,1-1.9,3.57-3.68,7.21-5.48,10.83a1.58,1.58,0,0,0-.24.9A3.34,3.34,0,0,0,446.82,231Zm-158-4.39c-2.31-1.91-3.53-3.36-5.09-4.07-1.25-.56-2.92-.24-4.39-.19-.05,0-.35,1.65-.05,1.86a43.42,43.42,0,0,0,6,3.65C285.88,228.11,286.91,227.33,288.86,226.6Zm332.57,19.7-3,3.24c1.83,1.06,3.65,2.15,5.53,3.13.19.1,1.08-.51,1.1-.83C625.27,248.7,624.08,246.5,621.43,246.3ZM555.65,578.89a24.58,24.58,0,0,0,.33,3c.09.47.69.84,1.06,1.25a6.26,6.26,0,0,0,.71-1.49c.31-1.63.4-3.32.81-4.92.15-.59,1-1,1.46-1.5-.83-.4-1.66-1.13-2.5-1.14C554.25,574.08,555.27,576.34,555.65,578.89Zm32.92-12c-.27-1.62-.12-3-.71-3.7-.71-.91-2.05-1.33-3.12-2a11,11,0,0,0-.32,2.7,27.58,27.58,0,0,0,1,4.62c.16.52.81.89,1.23,1.32a9.54,9.54,0,0,0,1.13-1.35A12.51,12.51,0,0,0,588.58,566.87ZM279.08,338.77c-1.05-.63-1.4-1-1.78-1a4,4,0,0,0-4.59,4.16c0,.5.55,1,.84,1.43Zm354.33,9.93c-.22.28-.75.71-.68.92a48.07,48.07,0,0,0,2.52,6.1c.36.68,1.53.93,2.33,1.37.13-1,.72-2.31.31-3a44,44,0,0,0-3.89-5.13C633.93,348.83,633.74,348.82,633.41,348.69ZM322.87,336.37l-.23,0,.2,2.58a19.84,19.84,0,0,0,2.34-1.81,3.43,3.43,0,0,0,.76-1.69,11.33,11.33,0,0,0,.23-3c0-.18-1.4-.58-1.56-.38A13.68,13.68,0,0,0,322.9,335,3.54,3.54,0,0,0,322.87,336.37ZM567.81,541.5l.85.32c.87-1.18,2-2.26,2.49-3.59.3-.9-.45-2.14-.72-3.24-.49.83-1,1.66-1.46,2.5a18,18,0,0,0-1.29,2.52A3.74,3.74,0,0,0,567.81,541.5Zm-73.26,59.06-1.12.34a7.89,7.89,0,0,0,1.28,1.66,11.4,11.4,0,0,0,2.78,1.59,8.86,8.86,0,0,0,2.35.24c-.34-1-.38-2.49-1.09-3C497.82,600.76,496.37,600.88,494.54,600.56ZM295.11,362.37l-.15-.75a10.49,10.49,0,0,0-3,.07c-.66.21-1.11,1.09-1.65,1.67a5.82,5.82,0,0,0,2.11.28A14.77,14.77,0,0,0,295.11,362.37ZM470.5,570.3a20.42,20.42,0,0,0-3.67-1.76c-.57-.12-1.29.4-1.94.63a11.8,11.8,0,0,0,2.46,1.79C467.9,571.19,468.72,570.72,470.5,570.3Zm71.55-365-1.75-3.14c-.26.3-.81.72-.75.87.61,1.41,1.33,2.77,2,4.14Zm58.1,90.88-1.07-1.38c-.45.69-1.16,1.35-1.27,2.09-.08.56.6,1.23.94,1.85Zm-2.34,8L597,303c-.52.64-1.06,1.26-1.52,1.94a2.85,2.85,0,0,0,.8.73A15.84,15.84,0,0,0,597.81,304.22ZM504.68,547.11c-.77-.48-1.18-.9-1.63-1-.28,0-.91.53-.88.76a4.21,4.21,0,0,0,.73,1.34Zm19.95,51.47a7.49,7.49,0,0,0-.77,2c0,.29.59.59.91.89a5,5,0,0,0,.78-1.46C525.6,599.74,525.13,599.34,524.63,598.58Zm5-55.92a5.6,5.6,0,0,0-1.12-.62c-.08,0-.46.47-.42.65a3.67,3.67,0,0,0,.59,1Zm62.07,37.54-.7-1c-.22.18-.65.4-.62.53a4.56,4.56,0,0,0,.52,1.1Zm-79.05,14.65a11.8,11.8,0,0,0-2-.74c-.24,0-.77.29-.75.38.06.4.19,1,.47,1.11S511.16,595.38,512.66,594.85Z"/><path class="cls-1" d="M1.73,396.85l-.9,1A4.39,4.39,0,0,1,0,397c-.06-.1.29-.65.42-.64A5.41,5.41,0,0,1,1.73,396.85Z"/><path class="cls-1" d="M377.22,6.41c-.48.29-.87.71-1.18.65s-.63-.55-.95-.85l1.26-1Z"/><path class="cls-1" d="M650.08,150.93c-.62.37-1,.74-1.29.71s-.48-.52-.72-.81c.23-.17.48-.49.7-.47A5.05,5.05,0,0,1,650.08,150.93Z"/></g></g></svg>